<svg width="43" height="59" fill="none" xmlns="http://www.w3.org/2000/svg"><path d="M12.443 23.976a12.513 12.513 0 01-.44-3.168c0-5.368 2.992-9.504 9.064-9.504 5.72 0 8.624 3.696 8.624 7.832 0 3.96-1.936 6.952-6.776 9.856l-9.416 5.632C3.29 40.784.123 48.968.035 59h42.24V48.528H14.907c.88-2.2 2.728-3.784 4.928-5.192l11-6.688c7.04-4.312 11.088-10.296 11.088-17.688C41.923 9.016 34.09.568 21.33.568 8.043.568.475 9.632.475 19.664c0 1.408.264 3.168.44 3.96l11.528.352z" fill="url(#paint0_linear)" fill-opacity=".16"/><defs><linearGradient id="paint0_linear" x1="21" y1="-21" x2="21" y2="75" gradientUnits="userSpaceOnUse"><stop stop-color="#2260FF"/><stop offset="0" stop-color="#4E545A"/><stop offset=".911" stop-color="#4E545A" stop-opacity="0"/></linearGradient></defs></svg>