<svg width="45" height="60" fill="none" xmlns="http://www.w3.org/2000/svg"><path d="M17.535 32.656c1.232-.44 2.728-.88 5.192-.88 5.456 0 9.328 3.08 9.328 8.448 0 4.752-3.608 8.624-9.68 8.624-5.984 0-10.12-4.224-10.384-10.032L.287 41.104c.704 9.592 8.8 18.216 22.088 18.216 13.816 0 21.912-9.064 21.912-18.92 0-10.472-7.92-17.072-16.544-17.424l14.784-12.32V.888H2.135V11.36h24.992l-14.96 12.848 5.368 8.448z" fill="url(#paint0_linear)" fill-opacity=".16"/><defs><linearGradient id="paint0_linear" x1="22.5" y1="-22" x2="22.5" y2="74" gradientUnits="userSpaceOnUse"><stop stop-color="#2260FF"/><stop offset="0" stop-color="#4E545A"/><stop offset=".911" stop-color="#4E545A" stop-opacity="0"/></linearGradient></defs></svg>