<svg width="45" height="60" fill="none" xmlns="http://www.w3.org/2000/svg"><path d="M.825 41.984c.704 8.976 9.328 17.424 21.736 17.424 13.728 0 21.912-9.24 21.912-19.888 0-12.232-8.096-19.096-19.536-19.096-3.784 0-7.832 1.232-10.296 3.52l2.816-12.584h23.936V.888H9.185L2.41 30.192c1.232.352 9.944 3.344 11.088 3.784 1.848-2.112 4.928-3.872 8.8-3.872 5.28 0 10.12 3.08 10.12 9.592 0 5.72-4.4 9.328-9.856 9.328-6.072 0-10.12-4.312-10.384-9.592L.825 41.984z" fill="url(#paint0_linear)" fill-opacity=".16"/><defs><linearGradient id="paint0_linear" x1="22.5" y1="-22" x2="22.5" y2="74" gradientUnits="userSpaceOnUse"><stop stop-color="#2260FF"/><stop offset="0" stop-color="#4E545A"/><stop offset=".911" stop-color="#4E545A" stop-opacity="0"/></linearGradient></defs></svg>