<svg width="186" height="134" fill="none" xmlns="http://www.w3.org/2000/svg"><path d="M169 85.976a85.247 85.247 0 00-8.263-36.614 84.85 84.85 0 00-23.166-29.455A84.34 84.34 0 00104.03 3.369a84.1 84.1 0 00-37.36-.387A84.316 84.316 0 0032.798 18.82 84.825 84.825 0 009.031 47.79 85.247 85.247 0 00.018 84.224a85.272 85.272 0 007.503 36.779h153.958A84.93 84.93 0 00169 85.976z" fill="#FAFAFA"/><path d="M12.537 58.812h104.566v58.477a4.021 4.021 0 01-1.184 2.849 4.049 4.049 0 01-2.859 1.18H16.58c-1.072 0-2.1-.424-2.859-1.18a4.02 4.02 0 01-1.184-2.849V58.812z" fill="#F6F6F6"/><path d="M85.099 58.812l-57.76 62.527H17.5a4.967 4.967 0 01-4.565-3.107 4.933 4.933 0 01-.355-1.902V58.769l72.52.043z" fill="#fff"/><path d="M12.537 58.812h104.566v58.477a4.021 4.021 0 01-1.184 2.849 4.049 4.049 0 01-2.859 1.18H16.58c-1.072 0-2.1-.424-2.859-1.18a4.02 4.02 0 01-1.184-2.849V58.812z" stroke="#242B33" stroke-linecap="round" stroke-linejoin="round"/><path d="M17.008 44.102h95.624a4.48 4.48 0 013.162 1.305 4.45 4.45 0 011.309 3.15v10.255H12.537V48.558c0-1.182.471-2.315 1.31-3.15a4.479 4.479 0 013.161-1.306z" fill="#fff"/><path d="M17.008 44.102h95.624a4.48 4.48 0 013.162 1.305 4.45 4.45 0 011.309 3.15v10.255H12.537V48.558c0-1.182.471-2.315 1.31-3.15a4.479 4.479 0 013.161-1.306z" stroke="#242B33" stroke-linecap="round" stroke-linejoin="round"/><path d="M19.917 53.909a2.456 2.456 0 002.46-2.452 2.456 2.456 0 00-2.46-2.452 2.456 2.456 0 00-2.46 2.452 2.456 2.456 0 002.46 2.452zM29.756 53.909a2.456 2.456 0 002.46-2.452 2.456 2.456 0 00-2.46-2.452 2.456 2.456 0 00-2.46 2.452 2.456 2.456 0 002.46 2.452zM39.599 53.909a2.456 2.456 0 002.46-2.452 2.456 2.456 0 00-2.46-2.452 2.456 2.456 0 00-2.46 2.452 2.456 2.456 0 002.46 2.452z" fill="#F6F6F6" stroke="#242B33" stroke-linecap="round" stroke-linejoin="round"/><path d="M58.358 69.855H24.515c-1.181 0-2.139.954-2.139 2.132v3.091c0 1.177.958 2.132 2.14 2.132h33.842c1.181 0 2.14-.954 2.14-2.132v-3.091a2.136 2.136 0 00-2.14-2.132zM58.358 83.328H24.515c-1.181 0-2.139.955-2.139 2.132v3.092c0 1.177.958 2.131 2.14 2.131h33.842c1.181 0 2.14-.954 2.14-2.132v-3.09a2.135 2.135 0 00-2.14-2.133zM106.341 99.275H24.515c-1.181 0-2.139.954-2.139 2.132v10.446c0 1.177.958 2.132 2.14 2.132h81.825a2.135 2.135 0 002.139-2.132v-10.446a2.135 2.135 0 00-2.139-2.132zM125.285 72.6l-7.216 7.19L130.7 92.379l7.215-7.19-12.63-12.588z" fill="#fff" stroke="#242B33" stroke-linecap="round" stroke-linejoin="round"/><path d="M118.064 85.05c17.755-11.585 22.724-35.32 11.099-53.013-11.625-17.694-35.442-22.645-53.197-11.06-17.755 11.585-22.724 35.32-11.099 53.013 11.626 17.694 35.442 22.645 53.197 11.06z" fill="#fff" stroke="#242B33" stroke-width="1.004" stroke-linecap="round" stroke-linejoin="round"/><path d="M96.415 83.329c16.907 0 30.613-13.659 30.613-30.507 0-16.85-13.706-30.508-30.613-30.508S65.803 35.974 65.803 52.822c0 16.848 13.705 30.507 30.612 30.507z" fill="#F6F6F6"/><path d="M118.088 31.268a30.62 30.62 0 00-9.933-6.614 30.707 30.707 0 00-23.433 0 30.624 30.624 0 00-9.932 6.614 30.506 30.506 0 00-6.637 9.899 30.42 30.42 0 000 23.352 30.503 30.503 0 006.637 9.898l43.298-43.149z" fill="#fff"/><path d="M118.064 31.247a30.467 30.467 0 018.376 15.62 30.408 30.408 0 01-1.743 17.625 30.53 30.53 0 01-11.275 13.69 30.687 30.687 0 01-17.007 5.14 30.688 30.688 0 01-17.006-5.14 30.531 30.531 0 01-11.275-13.69 30.41 30.41 0 01-1.744-17.625 30.474 30.474 0 018.376-15.62 30.71 30.71 0 0121.65-8.92 30.707 30.707 0 0121.648 8.92z" stroke="#242B33" stroke-miterlimit="10"/><path d="M163.092 115.772l-1.708 1.704a6.432 6.432 0 01-9.076.003l-23.712-23.613a2.129 2.129 0 01-.001-3.015l7.757-7.736a2.143 2.143 0 013.025-.001l23.697 23.598a6.377 6.377 0 011.411 6.98 6.386 6.386 0 01-1.393 2.08z" fill="#F6F6F6"/><path d="M128.63 90.834l7.793-7.76a2.146 2.146 0 013.026 0l23.68 23.616a6.38 6.38 0 01-.003 9.044l-1.741 1.733a6.433 6.433 0 01-9.076-.003l-23.68-23.615a2.13 2.13 0 01.001-3.015z" stroke="#242B33" stroke-miterlimit="10"/><path d="M107.262 81.43a31.237 31.237 0 007.38-4.007V41.65h-7.38v39.78zM92.501 83.073c1.298.171 2.606.257 3.915.256a30.891 30.891 0 003.465-.192V52.694h-7.38v30.379zM77.719 76.975a30.312 30.312 0 007.38 4.264V62.5h-7.38v14.475z" fill="#fff" stroke="#242B33" stroke-linejoin="round"/></svg>