<svg width="210" height="134" fill="none" xmlns="http://www.w3.org/2000/svg"><path d="M181.437 84.953a83.756 83.756 0 00-8.452-36.634c-5.563-11.439-13.66-21.509-23.697-29.472A87.058 87.058 0 00114.978 2.3a87.902 87.902 0 00-38.215-.387 87.121 87.121 0 00-34.65 15.847c-10.203 7.758-18.51 17.661-24.311 28.985A83.8 83.8 0 008.582 83.2a83.721 83.721 0 007.674 36.8h157.488a83.423 83.423 0 007.693-35.047z" fill="#FAFAFA"/><path d="M10.724 120h168.551M1 120h5.402M183.598 120H189" stroke="#242B33" stroke-linecap="round" stroke-linejoin="round"/><path d="M139.516 94.511c-2.474.001-4.91.607-7.086 1.764a14.812 14.812 0 00-5.382 4.863 7.194 7.194 0 00-7.518-.832 7.05 7.05 0 00-2.929 2.588 6.883 6.883 0 00-1.071 3.724c0 .914.454.638-1.296.638a9.155 9.155 0 00-5.57 1.893 8.893 8.893 0 00-3.204 4.861c-2.161-2.549-6.785-4.63-6.785-16.992h-5.186c0 12.277-4.711 14.401-6.785 16.992a8.889 8.889 0 00-3.205-4.861 9.153 9.153 0 00-5.569-1.893c-1.75 0-1.296.276-1.296-.638a6.876 6.876 0 00-1.072-3.724 7.046 7.046 0 00-2.928-2.588 7.195 7.195 0 00-7.518.832 14.791 14.791 0 00-4.464-4.36 15.071 15.071 0 00-5.897-2.162c-2.1-.3-4.24-.156-6.279.422a14.995 14.995 0 00-5.542 2.931 14.682 14.682 0 00-3.818 4.918 14.437 14.437 0 00-.172 12.092A14.671 14.671 0 0042.62 120h106.922a14.612 14.612 0 004.47-7.472c.689-2.876.478-5.89-.606-8.646a14.696 14.696 0 00-5.47-6.799 15.093 15.093 0 00-8.421-2.572z" fill="#fff"/><path d="M139.516 94.511c-2.474.001-4.91.607-7.086 1.764a14.812 14.812 0 00-5.382 4.863 7.194 7.194 0 00-7.518-.832 7.05 7.05 0 00-2.929 2.588 6.883 6.883 0 00-1.071 3.724c0 .914.454.638-1.296.638a9.155 9.155 0 00-5.57 1.893 8.893 8.893 0 00-3.204 4.861c-2.161-2.549-6.785-4.63-6.785-16.992h-5.186c0 12.277-4.711 14.401-6.785 16.992a8.889 8.889 0 00-3.205-4.861 9.153 9.153 0 00-5.569-1.893c-1.75 0-1.296.276-1.296-.638a6.876 6.876 0 00-1.072-3.724 7.046 7.046 0 00-2.928-2.588 7.195 7.195 0 00-7.518.832 14.791 14.791 0 00-4.464-4.36 15.071 15.071 0 00-5.897-2.162c-2.1-.3-4.24-.156-6.279.422a14.995 14.995 0 00-5.542 2.931 14.682 14.682 0 00-3.818 4.918 14.437 14.437 0 00-.172 12.092A14.671 14.671 0 0042.62 120h106.922a14.612 14.612 0 004.47-7.472c.689-2.876.478-5.89-.606-8.646a14.696 14.696 0 00-5.47-6.799 15.093 15.093 0 00-8.421-2.572v0z" stroke="#242B33" stroke-linecap="round" stroke-linejoin="round"/><path d="M106.453 60.102c3.76 23.365 11.15 20.625 11.647 30.778a1.043 1.043 0 01-.308.764 1.09 1.09 0 01-.772.319h-10.567v-31.86zM85.707 60.102C82.034 83.51 74.557 80.705 74.06 90.88a1.046 1.046 0 00.308.764 1.081 1.081 0 00.772.319h10.567v-31.86z" fill="#F6F6F6" stroke="#242B33" stroke-linecap="round" stroke-linejoin="round"/><path d="M106.454 86.865H85.709v5.098h20.745v-5.098z" fill="#F6F6F6" stroke="#242B33" stroke-linecap="round" stroke-linejoin="round"/><path d="M88.302 91.963h15.558v2.549a5.052 5.052 0 01-1.519 3.604 5.23 5.23 0 01-3.667 1.493h-5.186a5.232 5.232 0 01-3.667-1.493 5.054 5.054 0 01-1.52-3.604v-2.55z" fill="#F6F6F6" stroke="#242B33" stroke-linecap="round" stroke-linejoin="round"/><path d="M69.717 112.354a8.99 8.99 0 013.356-3.716 9.203 9.203 0 014.855-1.382M62.371 106.619c0-1.859.751-3.642 2.089-4.957a7.196 7.196 0 015.042-2.053M122.444 112.354a8.992 8.992 0 00-3.356-3.716 9.203 9.203 0 00-4.856-1.382M129.79 106.619a6.952 6.952 0 00-2.088-4.957 7.2 7.2 0 00-5.043-2.053" stroke="#242B33" stroke-linecap="round" stroke-linejoin="round"/><path d="M116.826 51.181c0-2.677-.537-5.329-1.579-7.803a20.384 20.384 0 00-4.497-6.615 20.789 20.789 0 00-6.73-4.42 21.059 21.059 0 00-7.94-1.553c-2.723 0-5.42.528-7.938 1.553a20.772 20.772 0 00-6.73 4.42 20.371 20.371 0 00-4.497 6.615 20.09 20.09 0 00-1.579 7.803 19.783 19.783 0 003.328 11.045 46.825 46.825 0 017.044 24.639h20.745a46.58 46.58 0 017.045-24.639 19.78 19.78 0 003.328-11.045z" fill="#fff"/><path d="M116.826 51.181c0-2.677-.537-5.329-1.579-7.803a20.384 20.384 0 00-4.497-6.615 20.789 20.789 0 00-6.73-4.42 21.059 21.059 0 00-7.94-1.553c-2.723 0-5.42.528-7.938 1.553a20.772 20.772 0 00-6.73 4.42 20.371 20.371 0 00-4.497 6.615 20.09 20.09 0 00-1.579 7.803 19.783 19.783 0 003.328 11.045 46.825 46.825 0 017.044 24.639h20.745a46.58 46.58 0 017.045-24.639 19.78 19.78 0 003.328-11.045v0zM105.156 47.358L99.97 86.865M92.19 86.865l-5.186-39.507" stroke="#242B33" stroke-linecap="round" stroke-linejoin="round"/><path d="M88.345 57.51l3.09-4.077a1.103 1.103 0 01.821-.361 1.12 1.12 0 01.821.36l2.161 2.125a1.09 1.09 0 001.513 0l2.16-2.124a1.103 1.103 0 01.822-.361 1.123 1.123 0 01.821.36l3.09 4.079" stroke="#242B33" stroke-linecap="round" stroke-linejoin="round"/></svg>