<svg width="100" height="112" fill="none" xmlns="http://www.w3.org/2000/svg"><path d="M50 96c22.091 0 40-17.909 40-40S72.091 16 50 16 10 33.909 10 56s17.909 40 40 40z" fill="#EBFBF7"/><path d="M38.36 98.5c-.33-.06-.66-.14-1-.21" stroke="#30D1A6" stroke-linecap="round" stroke-linejoin="round"/><path d="M34.54 97.44c-20.26-7.34-13-35.28 3.22-28.92a4.14 4.14 0 012.43 2.93 4.45 4.45 0 01-.82 3.69A6.23 6.23 0 0132 76.89c-10.66-4.57-3-23.4 10-26.06" stroke="#30D1A6" stroke-linecap="round" stroke-linejoin="round" stroke-dasharray="1.97 2.96"/><path d="M43.5 50.6c.33 0 .66-.06 1-.07" stroke="#30D1A6" stroke-linecap="round" stroke-linejoin="round"/><path d="M41.29 39.35a1.13 1.13 0 01.92-1.88l37 2.94a1.14 1.14 0 011 .83 1.12 1.12 0 01-.44 1.21L49.43 63.82a1.12 1.12 0 01-1.75-1.13L50.21 50a1.11 1.11 0 00-.27-1l-8.65-9.65z" fill="#fff" stroke="#30D1A6" stroke-linecap="round" stroke-linejoin="round"/><path d="M50.21 50l-2.53 12.69a1.12 1.12 0 001.75 1.13l30.33-21.37a1.13 1.13 0 00.44-1.22l-30 8.22c.048.18.051.369.01.55z" fill="#B7EFE1" stroke="#30D1A6" stroke-linecap="round" stroke-linejoin="round"/></svg>