<svg width="135" height="100" fill="none" xmlns="http://www.w3.org/2000/svg"><path d="M122.651 54.98a54.987 54.987 0 00-109.96-1.134 54.986 54.986 0 004.882 23.816h100.184a54.784 54.784 0 004.894-22.682z" fill="#FAFAFD"/><path d="M14.054 77.662h107.222M7.868 77.662h3.437M124.025 77.662h3.437" stroke="#2B3D53" stroke-linecap="round" stroke-linejoin="round"/><path d="M88.986 81.704a1.265 1.265 0 00.233 1.058 1.376 1.376 0 00.963.509c3.35.192 6.652.901 9.787 2.103a1.376 1.376 0 001.086 0 1.279 1.279 0 00.66-.866l.22-1.031.591-2.75a1.375 1.375 0 00-.797-1.485 32.524 32.524 0 00-5.197-1.662 31.93 31.93 0 00-5.402-.688 1.292 1.292 0 00-1.375 1.017l-.59 2.75-.18 1.044z" fill="#DEDEDE" stroke="#2B3D53" stroke-linejoin="round"/><path d="M94.566 80.494a1.375 1.375 0 011.553-1.004 1.306 1.306 0 11-1.553 1.004z" fill="#fff"/><path d="M39.36 90.364a1.292 1.292 0 00.73.81 1.374 1.374 0 001.1 0 32.234 32.234 0 014.646-1.896 32.673 32.673 0 014.88-1.169 1.375 1.375 0 00.907-.605 1.375 1.375 0 00.123-1.086l-.316-1.003-.866-2.75a1.375 1.375 0 00-1.374-.893 33.488 33.488 0 00-5.293 1.237 32.555 32.555 0 00-5.1 2.117 1.279 1.279 0 00-.632 1.554l.852 2.749.344.935z" fill="#DEDEDE" stroke="#2B3D53" stroke-linejoin="round"/><path d="M43.595 86.529a1.306 1.306 0 111.636.838 1.278 1.278 0 01-1.636-.838z" fill="#fff"/><path d="M26.425 45.564a1.375 1.375 0 001.925-.44 32.464 32.464 0 012.68-4.261 33.535 33.535 0 013.23-3.794 1.264 1.264 0 00.222-1.545 1.374 1.374 0 00-.359-.42l-.825-.633-2.268-1.677a1.374 1.374 0 00-1.677.11 32.132 32.132 0 00-3.601 4.124 32.603 32.603 0 00-2.86 4.632 1.375 1.375 0 00.372 1.636l2.254 1.608.907.66z" fill="#DEDEDE" stroke="#2B3D53" stroke-linejoin="round"/><path d="M27.58 39.97a1.293 1.293 0 01-.275-1.815 1.375 1.375 0 012.103 1.553 1.374 1.374 0 01-1.828.261z" fill="#fff"/><path d="M74.208 84.59a3.162 3.162 0 11-6.323 0v-3.945h6.323v3.945z" fill="#fff" stroke="#2B3D53" stroke-linecap="round" stroke-linejoin="round"/><path d="M66.853 75.999l.193 4.646a1.636 1.636 0 001.58 1.54h5.114a1.375 1.375 0 001.458-1.54V67.201H54.647v28.771h7.368L62.88 76a1.993 1.993 0 013.972 0z" fill="#DEDEDE"/><path d="M90.868 23.391l-1.003 3.12-2.653 8.056a13.884 13.884 0 01-12.015 8.839v23.795h-20.55V43.406a13.966 13.966 0 01-12.152-8.839l-2.626-8.042-1.072-3.134a2.748 2.748 0 011.76-3.491c.287-.076.582-.118.88-.124a2.75 2.75 0 012.611 1.897l1.223 3.711 2.392 7.355a8.249 8.249 0 007.698 5.223h18.943a8.248 8.248 0 007.698-5.223l2.406-7.355 1.21-3.711a2.749 2.749 0 012.666-1.897c.288.005.574.047.852.124a2.75 2.75 0 011.732 3.491z" fill="#fff"/><path d="M90.868 23.391l-1.003 3.12-2.653 8.056a13.884 13.884 0 01-12.015 8.839v23.795h-20.55V43.406a13.966 13.966 0 01-12.152-8.839l-2.626-8.042-1.072-3.134a2.748 2.748 0 011.76-3.491c.287-.076.582-.118.88-.124a2.75 2.75 0 012.611 1.897l1.223 3.711 2.392 7.355a8.249 8.249 0 007.698 5.223h18.943a8.248 8.248 0 007.698-5.223l2.406-7.355 1.21-3.711a2.749 2.749 0 012.666-1.897c.288.005.574.047.852.124a2.75 2.75 0 011.732 3.491z" stroke="#2B3D53" stroke-linecap="round" stroke-linejoin="round"/><path d="M66.084 100c7.417 0 13.43-1.059 13.43-2.364 0-1.306-6.013-2.365-13.43-2.365s-13.43 1.059-13.43 2.365c0 1.305 6.013 2.364 13.43 2.364z" fill="#FAFAFD"/><path d="M73.287 38.031l-2.488 4.537a1.582 1.582 0 01-2.612.247l-3.272-3.904v-.88h8.372zM64.915 38.031v.949l-3.258 3.904a1.567 1.567 0 01-2.598-.261l-2.488-4.592h8.344z" fill="#fff" stroke="#2B3D53" stroke-linecap="round" stroke-linejoin="round"/><path d="M64.929 38.91v28.291" stroke="#2B3D53" stroke-linecap="round" stroke-linejoin="round"/><path d="M64.916 38.91c-2.172 7.369-3.354 16.29 6.02 23.04l6.544-.894-4.619-5.69c-6.227-2.447-7.533-8.578-7.945-16.455z" fill="#DEDEDE" stroke="#2B3D53" stroke-linecap="round" stroke-linejoin="round"/><path d="M89.095 19.9a3.454 3.454 0 00-.852-.124 2.75 2.75 0 00-2.626 1.897l-1.21 3.711v.083l5.499.866.948-2.942a2.75 2.75 0 00-1.76-3.491zM45.327 25.384l-1.224-3.711a2.75 2.75 0 00-2.557-1.897 3.766 3.766 0 00-.88.124 2.748 2.748 0 00-1.869 3.491l.962 2.983 5.499-.893.069-.097z" fill="#fff" stroke="#2B3D53" stroke-linecap="round" stroke-linejoin="round"/><path d="M66.853 75.999l.193 4.646a1.636 1.636 0 001.58 1.54h5.114a1.375 1.375 0 001.458-1.54V67.201H54.647v28.771h7.368L62.88 76a1.993 1.993 0 013.972 0z" stroke="#2B3D53" stroke-linecap="round" stroke-linejoin="round"/><path d="M53.134 94.79a1.568 1.568 0 000 1.622 1.582 1.582 0 001.375.825h6.502a1.58 1.58 0 001.375-2.31c-1.732-3.285-7.272-3.147-9.252-.137zM75.198 64.04H54.647V67.2h20.55v-3.162z" fill="#fff" stroke="#2B3D53" stroke-linecap="round" stroke-linejoin="round"/><path d="M76.297 20.573a11.382 11.382 0 01-22.764 0c0-6.296 3.217-11.23 6.475-12.179a1.608 1.608 0 011.567.412c3.532 3.56 14.722-.88 14.722 11.767z" fill="#fff"/><path d="M76.297 20.573a11.382 11.382 0 01-22.764 0c0-6.296 3.217-11.23 6.475-12.179a1.608 1.608 0 011.567.412c3.532 3.56 14.722-.88 14.722 11.767z" stroke="#2B3D53" stroke-linecap="round" stroke-linejoin="round"/><path d="M74.414 23.419l-1.91.948-1.375-4.825a1.87 1.87 0 00-2.213-1.374c-2.626.623-5.361.623-7.987 0a1.87 1.87 0 00-2.213 1.374l-1.375 4.825-1.883-.948c-2.75 0-2.53 4.742.467 4.742a9.416 9.416 0 0018.008 0c2.997 0 3.19-4.742.481-4.742z" fill="#fff" stroke="#2B3D53" stroke-linecap="round" stroke-linejoin="round"/><path d="M59.788 27.68a1.182 1.182 0 100-2.364 1.182 1.182 0 000 2.364zM70.057 27.68a1.182 1.182 0 100-2.364 1.182 1.182 0 000 2.364z" fill="#DEDEDE"/><path d="M62.551 29.33a4.262 4.262 0 004.742 0M69.204 23.735a1.375 1.375 0 00-1.91 0M62.551 23.735a1.375 1.375 0 00-1.897 0" stroke="#2B3D53" stroke-linecap="round" stroke-linejoin="round"/><path d="M30.66 71.476h-.853c-14.379.028-27.836-17.925-28.4-18.695a2.064 2.064 0 013.313-2.46c.124.178 12.798 17.059 25.073 17.059h.646a42.038 42.038 0 0015.121-3.726c3.987-1.622 7.74-3.148 13.1-3.148 4.647 0 8.867 1.499 13.335 3.066 5.966 2.103 12.124 4.275 20.056 3.148 5.498-.797 11.176-3.34 16.647-5.801 8.701-3.904 16.921-7.602 24.331-4.358a2.064 2.064 0 011.065 2.715 2.064 2.064 0 01-2.715 1.066c-5.732-2.516-13.141.81-20.991 4.343-5.732 2.585-11.657 5.238-17.76 6.117-8.921 1.265-15.863-1.182-21.994-3.34-4.124-1.457-8.028-2.832-11.973-2.832-4.55 0-7.794 1.375-11.561 2.846a46.3 46.3 0 01-16.44 4z" fill="#DEDEDE" stroke="#2B3D53" stroke-miterlimit="10"/><path d="M32.818 64.63a1.376 1.376 0 00-1.086-.082 1.376 1.376 0 00-.77.784 32.246 32.246 0 01-2.035 4.59 31.614 31.614 0 01-2.749 4.221 1.374 1.374 0 00-.234 1.072 1.277 1.277 0 00.66.866l.921.495 2.488 1.375a1.292 1.292 0 001.636-.344 33.436 33.436 0 003.024-4.591 33.84 33.84 0 002.172-4.99 1.374 1.374 0 00-.605-1.567l-2.488-1.375-.934-.454z" fill="#DEDEDE" stroke="#2B3D53" stroke-linejoin="round"/><path d="M32.405 70.322a1.375 1.375 0 01.536 1.773 1.374 1.374 0 01-2.295-1.251 1.292 1.292 0 011.76-.522z" fill="#fff"/><path d="M37.106 53.482a1.252 1.252 0 00-.082 1.086 1.265 1.265 0 00.756.77 32.784 32.784 0 018.73 4.907 1.292 1.292 0 001.91-.384l.522-.908 1.375-2.46a1.292 1.292 0 00-.316-1.65 32.266 32.266 0 00-4.468-3.065 32.602 32.602 0 00-4.949-2.268 1.375 1.375 0 00-1.58.577l-1.375 2.46-.523.935z" fill="#DEDEDE" stroke="#2B3D53" stroke-linejoin="round"/><path d="M42.798 53.99a1.375 1.375 0 011.773-.508 1.29 1.29 0 01.495 1.773 1.299 1.299 0 11-2.268-1.264z" fill="#fff"/><path d="M107.199 41.633a1.364 1.364 0 00.179-1.072 1.273 1.273 0 00-.687-.839 32.033 32.033 0 01-4.33-2.53 32.76 32.76 0 01-3.904-3.175 1.279 1.279 0 00-1.031-.343 1.374 1.374 0 00-.935.55l-.605.866-1.594 2.323a1.278 1.278 0 00.15 1.663 34.355 34.355 0 004.207 3.464 33.24 33.24 0 004.715 2.75 1.375 1.375 0 001.622-.44l1.609-2.324.604-.893z" fill="#DEDEDE" stroke="#2B3D53" stroke-linejoin="round"/><path d="M101.577 40.602a1.309 1.309 0 01-2.013.166 1.307 1.307 0 112.013-.166z" fill="#fff"/><path d="M89.989 57.07a1.374 1.374 0 00.302-1.045 1.263 1.263 0 00-.59-.907 32.201 32.201 0 01-4.042-2.983 33.338 33.338 0 01-3.547-3.56 1.292 1.292 0 00-1.98 0l-.687.797-1.842 2.13a1.375 1.375 0 000 1.691 32.658 32.658 0 003.808 3.863 32.295 32.295 0 004.4 3.203 1.375 1.375 0 001.649-.233l1.842-2.131.687-.825z" fill="#DEDEDE" stroke="#2B3D53" stroke-linejoin="round"/><path d="M84.517 55.448a1.374 1.374 0 11-2.167-1.69 1.374 1.374 0 012.168 1.69z" fill="#fff"/><path d="M106.705 53.44a1.372 1.372 0 00-.715-.81 1.378 1.378 0 00-1.1 0 32.408 32.408 0 01-9.622 2.914 1.375 1.375 0 00-1.018 1.732l.303 1.004.825 2.749a1.375 1.375 0 001.374.921c1.802-.24 3.581-.626 5.32-1.155a33.111 33.111 0 005.1-2.144 1.292 1.292 0 00.66-1.54l-.825-2.75-.302-.92z" fill="#DEDEDE" stroke="#2B3D53" stroke-linejoin="round"/><path d="M102.402 57.276a1.277 1.277 0 01-.414 1.388 1.28 1.28 0 01-.452.234 1.308 1.308 0 01-1.537-1.863 1.301 1.301 0 011.282-.684 1.309 1.309 0 011.121.925z" fill="#fff"/></svg>