<svg width="116" height="32" fill="none" xmlns="http://www.w3.org/2000/svg"><path d="M47.315 6.485c.592.307 1.056.73 1.39 1.27.335.538.502 1.16.502 1.866 0 1.103-.392 2.02-1.178 2.751-.785.732-1.743 1.097-2.875 1.097h-5.792V0h5.367c1.106 0 2.042.356 2.809 1.068.765.712 1.148 1.6 1.148 2.665 0 1.167-.457 2.084-1.371 2.752zm-2.587-4.407h-3.147v3.54h3.147c.489 0 .901-.17 1.236-.51.334-.34.501-.76.501-1.26s-.166-.92-.501-1.26a1.668 1.668 0 00-1.236-.51zm.425 9.312c.515 0 .948-.182 1.303-.548.353-.365.53-.81.53-1.337 0-.526-.177-.972-.53-1.337a1.741 1.741 0 00-1.303-.548h-3.572v3.77h3.572zM52.797 5.465c.528-1.194 1.519-1.79 2.974-1.79v2.251c-.799-.05-1.494.138-2.085.568-.592.43-.888 1.138-.888 2.126v4.848h-2.085v-9.62h2.085v1.617zM64.225 3.848h2.085v9.62h-2.085v-1.384c-.785 1.09-1.91 1.635-3.378 1.635-1.326 0-2.459-.49-3.398-1.472-.94-.982-1.409-2.177-1.409-3.588 0-1.424.47-2.623 1.41-3.598.938-.974 2.071-1.462 3.397-1.462 1.468 0 2.593.538 3.378 1.616V3.848zm-5.231 7.014c.58.584 1.306.875 2.181.875.876 0 1.603-.292 2.182-.875.58-.584.868-1.318.868-2.204 0-.885-.289-1.619-.868-2.203-.58-.583-1.306-.875-2.182-.875-.875 0-1.601.292-2.181.875-.579.584-.868 1.318-.868 2.203 0 .886.289 1.62.868 2.204zM73.53 3.598c1.107 0 2.001.353 2.683 1.058.683.706 1.024 1.674 1.024 2.905v5.907h-2.085V7.773c0-.718-.193-1.27-.58-1.654-.385-.385-.913-.578-1.582-.578-.733 0-1.326.229-1.776.684-.45.455-.676 1.151-.676 2.087v5.157h-2.085v-9.62h2.085v1.23c.63-.987 1.628-1.48 2.992-1.48zM86.831 0h2.085v13.469h-2.085v-1.385c-.785 1.09-1.91 1.635-3.378 1.635-1.325 0-2.458-.491-3.397-1.472-.94-.982-1.41-2.177-1.41-3.588 0-1.424.47-2.623 1.41-3.598.939-.975 2.072-1.462 3.397-1.462 1.468 0 2.593.538 3.378 1.616V0zM81.6 10.862c.58.584 1.306.875 2.181.875.876 0 1.603-.292 2.182-.875.58-.584.868-1.318.868-2.204 0-.885-.289-1.619-.868-2.203-.58-.583-1.306-.875-2.182-.875-.875 0-1.601.292-2.181.875-.579.584-.868 1.318-.868 2.203 0 .886.29 1.62.868 2.204zM47.275 20.395h-5.694v3.771h5.502v2.117h-5.502v5.464h-2.22V18.28h7.914v2.116zM50.577 27.823c.155.73.509 1.292 1.062 1.683.553.392 1.23.587 2.027.587 1.107 0 1.938-.398 2.49-1.193l1.718 1c-.952 1.398-2.36 2.097-4.227 2.097-1.57 0-2.837-.477-3.803-1.433-.965-.955-1.447-2.165-1.447-3.627 0-1.436.476-2.639 1.428-3.607.953-.969 2.175-1.453 3.668-1.453 1.415 0 2.577.494 3.484 1.481.908.988 1.361 2.187 1.361 3.598 0 .219-.026.507-.077.866h-7.684zm-.019-1.694h5.676c-.143-.782-.467-1.372-.976-1.77-.508-.397-1.102-.596-1.785-.596-.772 0-1.416.212-1.93.635-.515.423-.843 1-.985 1.732zM67.468 22.127h2.085v9.62h-2.085v-1.385c-.785 1.09-1.91 1.635-3.378 1.635-1.326 0-2.458-.49-3.398-1.471-.94-.982-1.409-2.177-1.409-3.588 0-1.424.47-2.623 1.41-3.598.938-.975 2.072-1.462 3.397-1.462 1.468 0 2.593.538 3.378 1.616v-1.367zm-5.231 7.014c.58.584 1.306.875 2.181.875.876 0 1.603-.292 2.182-.875.58-.584.869-1.318.869-2.204 0-.885-.29-1.619-.868-2.203-.58-.583-1.307-.876-2.183-.876-.875 0-1.601.293-2.181.876-.579.584-.868 1.318-.868 2.203 0 .886.289 1.62.868 2.203zM77.083 24.128H74.69v4.618c0 .398.09.683.27.856.18.174.447.27.8.289.355.019.795.016 1.323-.01v1.867c-1.596.192-2.741.054-3.436-.414-.696-.468-1.042-1.33-1.042-2.588v-4.618h-1.776v-2h1.776v-2.079l2.085-.615v2.693h2.393v2.001zM85.287 22.127h2.085v9.62h-2.085v-1.23c-.63.987-1.628 1.48-2.992 1.48-1.107 0-2.002-.352-2.684-1.057-.682-.706-1.023-1.675-1.023-2.906v-5.907h2.085v5.696c0 .718.193 1.27.58 1.654.385.385.913.578 1.582.578.733 0 1.326-.228 1.776-.684.45-.455.676-1.151.676-2.087v-5.157zM91.6 23.743c.528-1.193 1.519-1.79 2.973-1.79v2.252c-.798-.051-1.493.138-2.085.568-.592.43-.888 1.138-.888 2.125v4.85h-2.084v-9.62H91.6v1.615zM97.025 27.823c.154.73.508 1.292 1.061 1.683.553.392 1.23.587 2.028.587 1.106 0 1.937-.398 2.49-1.193l1.718 1c-.952 1.398-2.362 2.097-4.228 2.097-1.57 0-2.837-.477-3.802-1.433-.966-.955-1.448-2.165-1.448-3.627 0-1.436.476-2.639 1.428-3.607.953-.969 2.176-1.453 3.669-1.453 1.414 0 2.577.494 3.483 1.481.908.988 1.361 2.187 1.361 3.598 0 .219-.026.507-.077.866h-7.683zm-.019-1.694h5.676c-.143-.782-.467-1.372-.976-1.77-.508-.397-1.103-.596-1.785-.596-.772 0-1.416.212-1.93.635-.516.422-.844 1-.985 1.732zM113.915 18.279H116v13.469h-2.085v-1.386c-.785 1.09-1.91 1.635-3.378 1.635-1.325 0-2.458-.49-3.397-1.471-.94-.982-1.41-2.177-1.41-3.588 0-1.424.47-2.623 1.41-3.598.938-.975 2.072-1.462 3.397-1.462 1.467 0 2.593.538 3.378 1.616v-5.215zm-5.231 10.861c.579.584 1.306.876 2.181.876.876 0 1.603-.292 2.182-.875.579-.584.868-1.318.868-2.204 0-.885-.289-1.62-.868-2.203-.579-.583-1.306-.876-2.182-.876-.875 0-1.601.293-2.181.876-.579.584-.868 1.318-.868 2.203 0 .886.289 1.62.868 2.203z" fill="#12294C"/><path d="M29.521 8.82v-.003c0-4.87-3.96-8.817-8.846-8.817h-15C3 0 .571 1.827.091 4.452a5.45 5.45 0 003.332 6.053l18.728 7.528-.002.004c2.582 1.034 4.212 3.933 3.193 7.028-.735 2.235-2.91 3.687-5.27 3.687a5.566 5.566 0 01-3.978-1.666v.001L4.617 15.72C2.91 14.026 0 15.233 0 17.634v5.549C0 28.053 3.96 32 8.846 32h11.829c4.886 0 8.846-3.947 8.846-8.817 0-2.966-1.474-5.584-3.727-7.182 2.253-1.598 3.727-4.216 3.727-7.181z" fill="url(#paint0_linear)"/><path d="M20.072 17.634c-3.08 0-5.577 2.489-5.577 5.559 0 3.07 2.497 5.558 5.577 5.558s5.577-2.488 5.577-5.558-2.497-5.559-5.577-5.559z" fill="url(#paint1_linear)"/><defs><linearGradient id="paint0_linear" x1="0" y1="16" x2="29.521" y2="16" gradientUnits="userSpaceOnUse"><stop stop-color="#5B9AFF"/><stop offset="1" stop-color="#94D1FD"/></linearGradient><linearGradient id="paint1_linear" x1="14.495" y1="23.193" x2="25.649" y2="23.193" gradientUnits="userSpaceOnUse"><stop stop-color="#DDEBFF"/><stop offset="1" stop-color="#94D1FD" stop-opacity="0"/></linearGradient></defs></svg>