<svg width="100" height="112" fill="none" xmlns="http://www.w3.org/2000/svg"><path d="M51 93c22.091 0 40-17.909 40-40S73.091 13 51 13 11 30.909 11 53s17.909 40 40 40z" fill="#EFF5FF"/><path d="M58 31.84a2.14 2.14 0 013.81 1.36l-.14 13.26a2.12 2.12 0 001.42 2l11.51 4.16a2.14 2.14 0 010 4L62.21 61a2.15 2.15 0 00-1.43 1.9l-.73 13.06a2.14 2.14 0 01-4 1l-6.68-11.1a2.13 2.13 0 00-2.55-.91l-12.17 4.3A2.13 2.13 0 0132.21 66l7.72-10.56a2.13 2.13 0 00.1-2.37l-6.82-11.2a2.14 2.14 0 012.55-3.13l11.53 4.13a2.16 2.16 0 002.39-.68L58 31.84z" fill="#fff"/><path d="M58 31.84a2.14 2.14 0 013.81 1.36l-.14 13.26a2.12 2.12 0 001.42 2l11.51 4.16a2.14 2.14 0 010 4L62.21 61a2.15 2.15 0 00-1.43 1.9l-.73 13.06a2.14 2.14 0 01-4 1l-6.68-11.1a2.13 2.13 0 00-2.55-.91l-12.17 4.3A2.13 2.13 0 0132.21 66l7.72-10.56a2.13 2.13 0 00.1-2.37l-6.82-11.2a2.14 2.14 0 012.55-3.13l11.53 4.13a2.16 2.16 0 002.39-.68L58 31.84z" stroke="#2E81FF" stroke-linecap="round" stroke-linejoin="round"/><path d="M58.02 86.44c3.175 0 5.75-.775 5.75-1.73 0-.956-2.575-1.73-5.75-1.73-3.176 0-5.75.774-5.75 1.73 0 .955 2.574 1.73 5.75 1.73z" fill="#B4D2FF"/><path d="M39.49 27a2.77 2.77 0 012.07-2.07l4.15-1a.33.33 0 00.27-.33.35.35 0 00-.27-.34l-4.15-1a2.749 2.749 0 01-2.07-2.07l-1-4.15a.33.33 0 00-.33-.26.35.35 0 00-.34.26l-1 4.15a2.74 2.74 0 01-2.06 2.07l-4.15 1a.35.35 0 00-.196.555.33.33 0 00.196.115l4.15 1A2.75 2.75 0 0136.9 27l1 4.15a.35.35 0 00.554.196.33.33 0 00.116-.196l.92-4.15zM81.42 45.41l3.24-1.09a.29.29 0 00.21-.29.31.31 0 00-.21-.29L82 42.85a1.21 1.21 0 01-.77-.77l-.89-2.67a.3.3 0 00-.29-.2.31.31 0 00-.29.2l-.89 2.67a1.181 1.181 0 01-.77.77l-2.67.89a.32.32 0 00-.21.29.3.3 0 00.21.29l2.67.89a1.221 1.221 0 01.77.78l.89 2.67a.32.32 0 00.29.21.309.309 0 00.29-.21l1.08-3.25zM24.84 61.28l3.24-1.09a.29.29 0 00.21-.29.31.31 0 00-.21-.29l-2.67-.89a1.208 1.208 0 01-.77-.77l-.89-2.67a.3.3 0 00-.29-.2.31.31 0 00-.29.2L22.28 58a1.18 1.18 0 01-.77.77l-2.67.89a.32.32 0 00-.21.29.3.3 0 00.21.29l2.67.89a1.22 1.22 0 01.77.78l.89 2.67a.32.32 0 00.29.21.31.31 0 00.29-.21l1.09-3.3z" fill="#fff" stroke="#2E81FF" stroke-linecap="round" stroke-linejoin="round"/></svg>