<svg width="100" height="112" fill="none" xmlns="http://www.w3.org/2000/svg"><path d="M51 93c22.091 0 40-17.909 40-40S73.091 13 51 13 11 30.909 11 53s17.909 40 40 40z" fill="#EFF5FF"/><path d="M69.51 43.44a.57.57 0 00.17-.58.58.58 0 00-.45-.42L56.2 40a.57.57 0 01-.42-.33l-4.18-9.6a.58.58 0 00-.53-.35.57.57 0 00-.52.35l-4.19 9.56a.55.55 0 01-.42.33l-13 2.48a.58.58 0 00-.45.42.58.58 0 00.18.58l8.93 7.82a.569.569 0 01.18.54l-2.3 12.26a.57.57 0 00.89.58l10.4-7.26a.58.58 0 01.33-.1.56.56 0 01.33.1l10.4 7.26a.57.57 0 00.65 0 .59.59 0 00.25-.59L60.39 51.8a.58.58 0 01.19-.54l8.93-7.82z" fill="#fff" stroke="#2E81FF" stroke-linecap="round" stroke-linejoin="round"/><path d="M51.07 48.18L39.73 64.66a.56.56 0 00.61 0l10.4-7.26a.58.58 0 01.33-.1.56.56 0 01.33.1l10.4 7.26a.58.58 0 00.62 0L51.07 48.18z" fill="#B4D2FF" stroke="#2E81FF" stroke-linecap="round" stroke-linejoin="round"/><path d="M69.68 42.87a.58.58 0 00-.45-.42L56.2 40a.57.57 0 01-.42-.33l-4.18-9.6a.58.58 0 00-.53-.35v18.46l18.61-5.31zM32.46 42.87a.58.58 0 01.45-.42l13-2.48a.55.55 0 00.42-.33l4.19-9.56a.57.57 0 01.52-.35v18.45l-18.58-5.31z" fill="#fff" stroke="#2E81FF" stroke-linecap="round" stroke-linejoin="round"/><path d="M51.07 83.15c14.608 0 26.45-.77 26.45-1.72s-11.842-1.72-26.45-1.72c-14.608 0-26.45.77-26.45 1.72s11.842 1.72 26.45 1.72z" fill="#B4D2FF"/><path d="M23.92 74.26a.58.58 0 00.46.86l14.48 1.16a1.73 1.73 0 001.86-1.72v-7.79l-16.16-1.3a.58.58 0 00-.55.86l2.22 3.89-2.31 4.04z" fill="#B4D2FF" stroke="#2E81FF" stroke-linecap="round" stroke-linejoin="round"/><path d="M34.14 72.84l5.8 3.16a1.71 1.71 0 00.78-1.44v-3.42h-7.59a1.94 1.94 0 001.01 1.7zM78.22 74.26a.569.569 0 01-.45.86l-14.49 1.16a1.699 1.699 0 01-1.3-.46 1.681 1.681 0 01-.56-1.26v-7.79l16.17-1.3a.58.58 0 01.54.86l-2.22 3.89 2.31 4.04z" fill="#B4D2FF" stroke="#2E81FF" stroke-linecap="round" stroke-linejoin="round"/><path d="M68 72.84L62.21 76a1.308 1.308 0 01-.23-.18 1.682 1.682 0 01-.56-1.26v-3.42H69a1.92 1.92 0 01-1 1.7z" fill="#B4D2FF" stroke="#2E81FF" stroke-linecap="round" stroke-linejoin="round"/><path d="M68.01 61.25H34.13a1 1 0 00-1 1v9.04a1 1 0 001 1h33.88a1 1 0 001-1v-9.04a1 1 0 00-1-1z" fill="#B4D2FF"/><path d="M68.01 61.25H34.13a1 1 0 00-1 1v9.04a1 1 0 001 1h33.88a1 1 0 001-1v-9.04a1 1 0 00-1-1z" stroke="#2E81FF" stroke-linecap="round" stroke-linejoin="round"/><path d="M76.2 35.7a2.77 2.77 0 012.07-2.07l4.15-1a.33.33 0 00.27-.33.35.35 0 00-.27-.34l-4.15-1A2.75 2.75 0 0176.2 29l-1-4.14a.33.33 0 00-.33-.27.35.35 0 00-.34.27l-1 4.14a2.74 2.74 0 01-1.99 2l-4.15 1a.35.35 0 00-.26.34.33.33 0 00.26.33l4.15 1a2.75 2.75 0 012.07 2.07l1 4.15a.35.35 0 00.554.195.33.33 0 00.116-.195l.92-4.19zM32 34.47l3.25-1.08a.32.32 0 00.21-.29.31.31 0 00-.21-.29l-2.67-.89a1.21 1.21 0 01-.77-.77l-.89-2.67a.31.31 0 00-.471-.155.29.29 0 00-.11.155l-.89 2.67a1.229 1.229 0 01-.77.77l-2.68.89a.3.3 0 00-.2.29.31.31 0 00.2.29l2.68.89a1.21 1.21 0 01.77.77l.89 2.67a.3.3 0 00.468.15.32.32 0 00.113-.15L32 34.47zM21.85 50.08L25.1 49a.31.31 0 00.21-.29.3.3 0 00-.21-.29l-2.67-.89a1.23 1.23 0 01-.77-.77l-.89-2.67a.31.31 0 00-.58 0l-.89 2.67a1.23 1.23 0 01-.77.77l-2.67.89a.3.3 0 00-.21.29.31.31 0 00.21.29l2.67.89a1.21 1.21 0 01.77.77l.89 2.67a.31.31 0 00.58 0l1.08-3.25z" fill="#fff" stroke="#2E81FF" stroke-linecap="round" stroke-linejoin="round"/></svg>