<svg width="100" height="112" fill="none" xmlns="http://www.w3.org/2000/svg"><path d="M51 93c22.091 0 40-17.909 40-40S73.091 13 51 13 11 30.909 11 53s17.909 40 40 40z" fill="#F0F2FF"/><path d="M54.64 37.29a4.91 4.91 0 11-4.91-4.91 4.9 4.9 0 014.91 4.91z" fill="#B4D2FF"/><path d="M67.74 69.22H31.72v4.91h36.02v-4.91zM69.37 67.58a1.63 1.63 0 01-1.63 1.63h-36a1.64 1.64 0 010-3.27h36a1.65 1.65 0 011.63 1.64z" fill="#fff"/><path d="M69.37 67.58a1.63 1.63 0 01-1.63 1.63h-36a1.64 1.64 0 010-3.27h36a1.65 1.65 0 011.63 1.64z" stroke="#2E81FF" stroke-miterlimit="10"/><path d="M69.37 75.77a1.63 1.63 0 01-1.63 1.63h-36a1.64 1.64 0 010-3.27h36a1.65 1.65 0 011.63 1.64z" fill="#fff"/><path d="M69.37 75.77a1.63 1.63 0 01-1.63 1.63h-36a1.64 1.64 0 010-3.27h36a1.65 1.65 0 011.63 1.64z" stroke="#2E81FF" stroke-miterlimit="10"/><path d="M46.05 60.64l1.23 5.3h-13.1s-3.37-7 0-12.28c3.37-5.28 10.64-2.45 10.64-2.45a47.75 47.75 0 001.23 9.43z" fill="#B4D2FF"/><path d="M67.74 74.13H31.72v-4.91h36.02v4.91zM31.72 65.94s-4.09-3.42-4.09-11.42 5.63-10.68 9.82-10.68a15.5 15.5 0 017.37 1.59M67.74 65.94s4.09-3.42 4.09-11.42S66.2 43.84 62 43.84a15.5 15.5 0 00-7.37 1.59" stroke="#2E81FF" stroke-linecap="round" stroke-linejoin="round"/><path d="M52.19 65.94h-4.91l-1.23-5.3a47.758 47.758 0 01-1.21-9.43v-6.27a2.74 2.74 0 012.73-2.74h4.36a2.74 2.74 0 012.73 2.74v6.27a48.497 48.497 0 01-1.21 9.43l-1.26 5.3z" fill="#fff"/><path d="M52.19 65.94h-4.91l-1.23-5.3a47.758 47.758 0 01-1.21-9.43v-6.27a2.74 2.74 0 012.73-2.74h4.36a2.74 2.74 0 012.73 2.74v6.27a48.497 48.497 0 01-1.21 9.43l-1.26 5.3z" stroke="#2E81FF" stroke-linecap="round" stroke-linejoin="round"/><path d="M54.64 37.29a4.91 4.91 0 11-4.91-4.91 4.9 4.9 0 014.91 4.91v0zM49.73 32.38v-7.37M47.28 27.47h4.91" stroke="#2E81FF" stroke-linecap="round" stroke-linejoin="round"/><path d="M49.73 47.12a1.64 1.64 0 110 3.28 1.64 1.64 0 010-3.28z" fill="#B4D2FF"/><path d="M49.73 47.12a1.64 1.64 0 110 3.28 1.64 1.64 0 010-3.28z" stroke="#2E81FF" stroke-linecap="round" stroke-linejoin="round"/><path d="M49.73 55.3a1.64 1.64 0 11-1.64 1.64 1.65 1.65 0 011.64-1.64z" fill="#B4D2FF" stroke="#2E81FF" stroke-linecap="round" stroke-linejoin="round"/><path d="M49.73 55.3a1.64 1.64 0 11-1.64 1.64 1.65 1.65 0 011.64-1.64v0zM44.82 37.29h2.46M52.19 37.29h2.45" stroke="#2E81FF" stroke-linecap="round" stroke-linejoin="round"/><path d="M46.05 60.64l1.23 5.3h-13.1s-3.37-7 0-12.28c3.37-5.28 10.64-2.45 10.64-2.45a47.75 47.75 0 001.23 9.43v0z" stroke="#2E81FF" stroke-miterlimit="10"/><path d="M53.41 60.64l-1.22 5.3h13.09s3.38-7 0-12.28c-3.38-5.28-10.64-2.45-10.64-2.45a47.764 47.764 0 01-1.23 9.43z" fill="#B4D2FF"/><path d="M53.41 60.64l-1.22 5.3h13.09s3.38-7 0-12.28c-3.38-5.28-10.64-2.45-10.64-2.45a47.764 47.764 0 01-1.23 9.43v0z" stroke="#2E81FF" stroke-miterlimit="10"/><path d="M49.85 87.84c8.892 0 16.1-.77 16.1-1.72s-7.208-1.72-16.1-1.72c-8.892 0-16.1.77-16.1 1.72s7.208 1.72 16.1 1.72z" fill="#B4D2FF"/><path d="M76.57 34a2.75 2.75 0 012.07-2l4.15-1a.35.35 0 00.195-.555.33.33 0 00-.195-.115l-4.15-1a2.77 2.77 0 01-2.07-2.07l-1-4.15a.33.33 0 00-.33-.27.35.35 0 00-.34.27l-1 4.15a2.75 2.75 0 01-2.07 2.07l-4.15 1a.33.33 0 00-.26.33.35.35 0 00.26.34l4.15 1A2.74 2.74 0 0174 34l1 4.15a.35.35 0 00.34.26.33.33 0 00.33-.26l.9-4.15zM26.72 38.06L30 37a.31.31 0 000-.58l-2.67-.89a1.21 1.21 0 01-.77-.77l-.89-2.67a.31.31 0 00-.58 0l-.89 2.67a1.208 1.208 0 01-.77.77l-2.67.89a.31.31 0 000 .58l2.67.89a1.21 1.21 0 01.77.77l.89 2.67a.31.31 0 00.58 0l1.05-3.27z" fill="#fff" stroke="#2E81FF" stroke-linecap="round" stroke-linejoin="round"/></svg>