<svg width="64" height="130" fill="none" xmlns="http://www.w3.org/2000/svg"><path d="M28.254 110.568c.679-2.766-1.049-5.532-3.085-7.48-1.974-2.012-4.38-3.772-5.367-6.412-1.666-4.274.555-9.806-2.283-13.389-1.666-2.074-4.69-2.828-6.17-5.028-.802-1.195-1.05-2.64-1.358-4.023-1.542-7.04-5.059-13.703-9.933-18.92-.37 6.285 1.049 12.634 3.887 18.228 1.172 2.263 2.591 4.4 2.961 6.915.617 4.086-1.604 8.234-.617 12.257 1.111 4.589 6.17 7.606 6.417 12.32.185 3.961-3.208 7.481-2.961 11.441.123 1.697.863 3.268 1.727 4.714 3.023 5.092 7.466 8.612 14.13 8.486l8.205.314-5.553-19.423z" fill="#30D1A6"/><path opacity=".3" d="M28.254 110.568c.679-2.766-1.049-5.532-3.085-7.48-1.974-2.012-4.38-3.772-5.367-6.412-1.666-4.274.555-9.806-2.283-13.389-1.666-2.074-4.69-2.828-6.17-5.028-.802-1.195-1.05-2.64-1.358-4.023-1.542-7.04-5.059-13.703-9.933-18.92-.37 6.285 1.049 12.634 3.887 18.228 1.172 2.263 2.591 4.4 2.961 6.915.617 4.086-1.604 8.234-.617 12.257 1.111 4.589 6.17 7.606 6.417 12.32.185 3.961-3.208 7.481-2.961 11.441.123 1.697.863 3.268 1.727 4.714 3.023 5.092 7.466 8.612 14.13 8.486l8.205.314-5.553-19.423z" fill="#2B3D53"/><path d="M35.473 129.928s.802.189 2.283-.062c.74-.126 1.666-.315 2.653-.692a11.453 11.453 0 003.27-1.823c.555-.503 1.049-1.068 1.357-1.823.309-.754.309-1.634.37-2.514.062-.88.062-1.76.186-2.703.123-.943.493-1.823.987-2.703.987-1.76 2.591-3.394 3.085-5.72.555-2.326.185-4.84-.247-7.354-.37-2.515-.74-5.218.185-7.858.864-2.64 2.653-4.966 3.579-7.92.925-2.954.493-6.16.678-9.366.062-1.571.37-3.206 1.05-4.651.678-1.509 1.603-2.892 2.282-4.463 1.48-3.143 1.727-6.726 2.098-10.246.185-1.76.37-3.52.617-5.343.185-1.823.37-3.583.925-5.343.494-1.76 1.234-3.457 1.974-5.155.37-.88.74-1.76.926-2.703.185-1.005.185-1.885.247-2.891.062-1.949 0-3.834-.247-5.783-.247-1.949-.555-3.834-.74-5.783 0-.126 0-.251-.062-.314l-.062-.377-.308.188c-1.79.88-3.27 2.263-4.443 3.835-1.172 1.571-2.036 3.331-2.714 5.091-1.358 3.583-1.851 7.355-2.53 10.938-.679 3.582-1.542 7.165-3.393 10.12-.926 1.508-1.975 2.828-2.962 4.337-.925 1.446-1.79 3.017-2.036 4.777-.494 3.52 1.42 6.663 1.049 9.806-.123 1.572-.74 3.017-1.48 4.337-.741 1.32-1.605 2.578-2.469 3.835-.802 1.257-1.604 2.514-2.221 3.834-.617 1.32-.925 2.766-.987 4.212-.185 2.828.185 5.531 0 8.046-.185 2.514-1.05 4.84-2.036 6.851-.987 2.074-2.098 3.897-3.024 5.72-.493.88-.925 1.76-1.233 2.64-.37.88-.556 1.76-.74 2.64-.248 1.76-.248 3.332-.063 4.778.37 2.891 1.42 4.902 2.345 6.097.247.314.494.503.679.754.185.189.37.377.555.44.494.189.617.314.617.314.062-.062-.679-.44-1.604-1.634-.926-1.194-1.913-3.206-2.221-6.034a15.333 15.333 0 01.123-4.715c.185-.817.37-1.697.74-2.577.37-.88.802-1.76 1.234-2.64.926-1.76 2.037-3.646 3.085-5.72.988-2.074 1.913-4.4 2.098-6.977.185-2.578-.185-5.28.062-8.046.123-1.383.432-2.766.987-4.086.555-1.32 1.357-2.577 2.16-3.772.801-1.257 1.727-2.514 2.467-3.834.74-1.383 1.42-2.891 1.543-4.526.37-3.331-1.48-6.474-.987-9.743.247-1.634 1.049-3.143 1.974-4.588.925-1.446 2.036-2.766 2.962-4.338 1.85-3.08 2.776-6.663 3.455-10.309.678-3.645 1.172-7.354 2.53-10.874.678-1.76 1.48-3.457 2.652-4.966a12.643 12.643 0 014.258-3.646l-.37-.188c0 .125 0 .251.061.314.185 1.949.555 3.897.74 5.783.247 1.886.309 3.834.247 5.72-.061.943-.123 1.886-.246 2.766-.186.88-.556 1.76-.926 2.64-.74 1.697-1.48 3.457-1.974 5.217-.556 1.76-.74 3.646-.926 5.469-.185 1.823-.37 3.583-.555 5.343-.37 3.52-.679 7.04-2.036 10.057-.679 1.509-1.604 2.892-2.283 4.463-.679 1.509-1.049 3.206-1.11 4.84-.186 3.206.246 6.412-.618 9.24-.863 2.83-2.653 5.218-3.578 7.92-.987 2.704-.555 5.532-.185 8.047.37 2.514.802 4.965.247 7.228-.494 2.263-2.036 3.898-3.024 5.658-.493.88-.863 1.822-1.048 2.828-.124.943-.124 1.886-.186 2.766-.061.88-.061 1.697-.37 2.451-.247.755-.74 1.32-1.295 1.76-1.05.88-2.222 1.446-3.209 1.823-.987.378-1.913.629-2.653.755-.74.125-1.296.125-1.666.188-.308-.063-.555-.063-.555-.063z" fill="#5CDCBB"/><path d="M61.448 31.303s-.062.063-.062.252c-.061.189-.123.44-.185.754-.185.629-.37 1.635-.678 2.892-.309 1.257-1.05 2.64-1.728 4.4-.679 1.697-1.357 3.708-1.974 5.909-.617 2.262-1.172 4.714-1.79 7.354-.617 2.64-1.172 5.469-2.652 8.172-.68 1.382-1.42 2.765-2.037 4.211-.617 1.509-.925 3.143-1.172 4.777-.37 3.332-.987 6.663-1.79 10.12-1.665 6.852-3.208 13.39-4.627 19.36-1.48 5.91-2.776 11.253-3.887 15.778-1.11 4.463-1.974 8.109-2.59 10.623-.31 1.258-.495 2.2-.68 2.892a6.601 6.601 0 01-.185.754c-.061.189-.061.252-.061.252s.061-.063.061-.252c.062-.188.124-.44.185-.754.186-.692.432-1.634.803-2.892.678-2.577 1.604-6.16 2.714-10.623 1.172-4.525 2.53-9.806 4.01-15.777 1.42-5.972 3.024-12.509 4.69-19.36.802-3.458 1.357-6.852 1.789-10.184.247-1.634.555-3.205 1.11-4.714.556-1.446 1.358-2.829 1.975-4.212 1.419-2.702 2.036-5.657 2.653-8.297.555-2.64 1.11-5.154 1.666-7.354.617-2.2 1.234-4.212 1.85-5.909.618-1.697 1.297-3.143 1.605-4.4.309-1.257.432-2.263.555-2.954.062-.315.124-.566.124-.755.308 0 .308-.063.308-.063z" fill="#5CDCBB"/><path d="M36.954 129.991c5.368-3.268 6.91-12.886 4.689-18.794-2.221-5.909-6.17-11.378-6.787-17.727-.494-4.84 1.11-9.868 0-14.645-1.48-6.412-7.65-11.378-7.589-17.978.062-3.709 2.098-7.166 1.913-10.875-.185-4.525-3.64-8.108-5.738-12.131-3.27-6.098-3.455-13.326-4.566-20.24C17.766 10.748 15.174 3.393 9.251 0c-.864 5.846-2.406 9.806-1.913 17.726.186 2.829 3.394 8.235 3.826 14.458.247 3.708.432 7.417.678 11.126.247 3.645.432 7.291 1.728 10.685.987 2.578 2.53 4.966 3.27 7.606 1.357 5.029-.432 10.498.679 15.59.925 4.336 3.887 8.045 4.442 12.445.864 6.16-3.085 12.572-1.049 18.418.987 2.891 3.332 5.28 4.01 8.234.494 2.326-.061 4.777.433 7.166.74 3.834 7.835 6.726 11.599 6.537z" fill="#30D1A6"/><path d="M10.732 5.846v.314c.061.252.061.566.123.943.123.817.247 2.074.555 3.646.309 1.634 1.11 3.394 1.79 5.594a90.393 90.393 0 011.974 7.48c.617 2.829 1.11 5.909 1.666 9.24.555 3.332 1.11 6.978 2.776 10.435.74 1.76 1.604 3.52 2.221 5.343.68 1.886.926 3.834 1.111 5.909.247 4.148.802 8.423 1.604 12.76 1.666 8.612 3.209 16.846 4.628 24.326a2278.28 2278.28 0 004.01 19.801 1104.013 1104.013 0 012.715 13.326c.308 1.571.617 2.765.74 3.645.062.378.185.692.185.943.062.189.062.315.062.315s0-.126-.062-.315a12.47 12.47 0 01-.185-.943c-.185-.88-.37-2.074-.679-3.645-.617-3.206-1.48-7.732-2.59-13.389-1.111-5.658-2.407-12.383-3.888-19.864a7643.81 7643.81 0 01-4.566-24.326c-.74-4.337-1.295-8.548-1.604-12.697-.185-2.075-.493-4.149-1.172-6.035-.679-1.885-1.48-3.645-2.283-5.405-1.604-3.458-2.16-6.978-2.776-10.31-.556-3.33-1.111-6.474-1.728-9.24-.617-2.828-1.357-5.342-2.036-7.48-.679-2.2-1.543-3.96-1.851-5.531-.308-1.572-.494-2.829-.617-3.646a12.594 12.594 0 00-.185-.943c.123-.188.062-.251.062-.251z" fill="#5CDCBB"/></svg>