<svg width="39" height="54" fill="none" xmlns="http://www.w3.org/2000/svg"><path d="M19.472.047c2.421 1.09 4.305 3.36 5.201 5.904.897 2.543.987 5.359.718 8.084-.628 5.177-3.497 10.445-6.636 14.623-4.305-3.815-5.291-10.536-5.65-13.988C12.567 9.313 14.988-.77 19.472.048zM23.687 37.287c-.717-2.906.538-6.176 2.78-8.174 2.242-1.999 5.381-2.907 8.34-2.634 1.346.09 2.87.544 3.678 1.634.717 1.09.627 2.544.09 3.724-.629 1.181-1.615 1.999-2.691 2.725-3.856 2.362-7.892 3.997-12.197 2.725z" fill="#2E81FF"/><path d="M18.127 53.273s0-.363.18-1.09c.179-.726.268-1.725.537-2.906.449-2.453 1.077-5.904 2.96-9.265 1.793-3.36 4.394-5.813 6.547-7.085 1.076-.636 1.972-.999 2.69-1.18.359-.091.628-.182.807-.182.18 0 .269-.09.269 0s-1.524.363-3.587 1.635c-2.063 1.271-4.574 3.724-6.367 6.994-1.794 3.27-2.512 6.721-3.05 9.083-.269 1.18-.448 2.18-.627 2.906-.18.727-.359 1.09-.359 1.09z" fill="#2E81FF"/><path d="M18.306 7.858s0 .182.09.454c0 .364.09.818.09 1.363.09 1.18.09 2.816.18 4.905.089 4.178.268 9.99.179 16.349 0 6.358-.18 12.171-.36 16.35-.089 2.089-.179 3.814-.268 4.904 0 .545-.09 1-.09 1.363 0 .272 0 .454-.09.454v-.454-1.363c0-1.18.09-2.906.09-4.904.09-4.179.18-9.992.269-16.35 0-6.358 0-12.171-.09-16.35 0-2.088-.09-3.724-.09-4.995V8.22c.09-.181.09-.363.09-.363zM16.244 40.466c-.987-6.358-5.202-11.99-10.852-14.805-1.434-.727-3.318-1.18-4.573-.09-1.166 1.089-.897 3.087-.359 4.54 2.421 6.359 8.968 10.81 15.694 10.719" fill="#2E81FF"/><path d="M6.02 30.566s.36.09.897.363c.27.182.628.273 1.076.545.36.273.897.454 1.346.818.448.363.986.726 1.524 1.18.538.454 1.076.909 1.614 1.454a20.2 20.2 0 013.05 3.996c.896 1.544 1.524 3.18 2.062 4.633.18.726.449 1.453.538 2.18.18.635.18 1.362.27 1.907.089.545.089 1.09.089 1.544v1.18c-.09.637-.09 1-.09 1-.09 0 .09-1.453-.179-3.724a48.5 48.5 0 01-.27-1.908c-.089-.635-.358-1.362-.537-2.089-.449-1.453-1.166-2.997-1.973-4.541-.897-1.544-1.973-2.816-2.96-3.906-.538-.545-1.076-1.09-1.524-1.453-.538-.454-.987-.818-1.435-1.181-2.242-1.272-3.497-1.907-3.497-1.998z" fill="#2E81FF"/></svg>