<svg width="210" height="553" fill="none" xmlns="http://www.w3.org/2000/svg"><path d="M209.001 553l-1.029-1.029c-.823-.617-1.852-1.646-3.292-2.675-1.441-1.235-3.293-2.676-5.351-4.528-1.029-.823-2.264-1.853-3.499-2.882-1.235-1.029-2.47-2.263-3.705-3.292-2.675-2.47-5.556-5.146-8.849-8.027-3.293-2.881-6.586-6.38-10.291-9.878-3.704-3.499-7.409-7.615-11.319-11.731-4.116-4.117-8.026-8.85-12.348-13.584-4.322-4.733-8.438-10.084-12.76-15.435-2.264-2.676-4.322-5.557-6.586-8.438-2.264-2.881-4.528-5.968-6.586-8.85-2.058-3.087-4.322-6.174-6.586-9.467-1.029-1.646-2.263-3.293-3.292-4.939a199.897 199.897 0 00-3.293-5.145c-2.058-3.499-4.322-6.792-6.586-10.291-2.058-3.498-4.116-7.203-6.38-10.907-2.264-3.705-4.116-7.409-6.174-11.32-2.058-3.91-4.116-7.614-5.969-11.73-1.852-3.911-3.91-8.027-5.762-12.143-1.852-4.116-3.499-8.438-5.351-12.554-6.998-17.082-13.172-35.193-18.317-54.127-4.94-18.934-8.438-37.868-10.908-56.185-.617-4.528-1.029-9.055-1.646-13.583-.412-4.528-.617-9.056-1.03-13.378-.41-4.527-.41-8.849-.617-13.171-.205-4.322-.411-8.644-.411-12.966v-12.554c0-4.116.411-8.232.411-12.143 0-2.058.206-3.91.206-5.968.206-2.058.206-3.91.412-5.968.411-3.911.617-7.615 1.029-11.525l1.235-11.114c.411-3.704.823-7.203 1.44-10.702 1.235-6.997 2.059-13.583 3.5-19.757 1.234-6.38 2.469-12.349 3.91-17.905 1.44-5.557 2.47-10.908 4.116-15.847 1.44-4.94 2.675-9.467 3.91-13.584 1.44-4.116 2.675-8.026 3.704-11.319.618-1.646 1.03-3.293 1.647-4.733.617-1.441 1.029-2.882 1.646-4.116 1.03-2.676 1.853-4.734 2.47-6.586.617-1.853 1.235-3.087 1.44-4.116.412-.824.412-1.441.412-1.441s-.206.412-.617 1.44c-.412 1.03-.823 2.264-1.647 3.91-.617 1.853-1.646 3.911-2.47 6.587-.411 1.234-1.028 2.675-1.646 4.116-.617 1.44-1.029 3.087-1.646 4.733-1.235 3.499-2.47 7.203-3.91 11.32-1.235 4.116-2.676 8.85-4.117 13.583-1.44 4.94-2.675 10.29-4.116 15.847-1.44 5.557-2.675 11.525-3.91 17.905-1.44 6.174-2.264 12.966-3.499 19.963-.617 3.499-1.029 6.998-1.44 10.702-.412 3.705-1.03 7.409-1.441 11.114-.412 3.704-.618 7.614-1.03 11.525-.205 1.852-.41 3.91-.41 5.968s-.206 3.91-.206 5.968c-.206 4.116-.412 8.027-.412 12.349v12.554c0 4.322.206 8.644.206 12.966.205 4.322.206 8.849.617 13.171.412 4.528.617 8.85 1.03 13.378.617 4.527 1.028 9.055 1.646 13.583 2.47 18.316 5.968 37.251 10.907 56.185 5.145 18.934 11.32 37.045 18.523 54.127 1.852 4.322 3.704 8.438 5.35 12.554 1.853 4.116 3.911 8.232 5.763 12.142 1.853 4.116 3.91 7.821 5.969 11.731 2.058 3.911 3.91 7.615 6.174 11.32 2.058 3.704 4.322 7.409 6.38 10.907 2.058 3.499 4.322 6.998 6.586 10.291 1.029 1.646 2.058 3.292 3.293 5.145 1.029 1.646 2.263 3.293 3.292 4.939 2.264 3.293 4.322 6.38 6.586 9.467 2.264 3.087 4.528 5.968 6.586 8.85 2.264 2.881 4.322 5.762 6.586 8.438 4.528 5.351 8.644 10.702 12.966 15.435 4.321 4.734 8.232 9.467 12.348 13.583 4.116 4.116 7.821 8.233 11.525 11.731 3.705 3.499 6.997 6.792 10.29 9.879a747.239 747.239 0 009.056 7.821c1.44 1.234 2.675 2.263 3.91 3.292 1.235 1.029 2.47 1.853 3.499 2.882 2.058 1.646 3.91 3.293 5.557 4.322 1.44 1.235 2.675 2.058 3.292 2.675.618 1.029 1.029 1.235 1.029 1.235z" fill="#F5F6FD"/><path d="M124.21 472.53c17.493-13.172 23.873-37.662 19.963-59.066-3.705-21.61-16.053-40.75-30.254-57.42-12.965 16.464-20.786 40.132-17.905 60.918 3.087 20.581 14.818 37.663 28.196 55.568z" fill="#F5F6FD"/><path d="M124.414 472.53c3.087-21.61-9.673-43.425-27.578-55.979-17.905-12.554-40.132-17.288-61.947-19.14 2.47 20.786 13.789 43.219 30.46 55.773 16.464 12.348 36.838 16.053 59.065 19.346zM64.525 358.102c16.67-8.644 25.52-28.195 25.52-46.924 0-18.728-7.615-36.633-17.082-52.892-13.377 11.937-23.461 30.871-23.873 48.776-.618 17.905 6.997 34.164 15.435 51.04z" fill="#F5F6FD"/><path d="M64.731 358.102c5.763-17.905-1.852-38.074-15.23-51.246C36.33 293.685 18.22 286.276.108 281.748c-1.03 17.905 5.35 38.28 17.493 51.245 12.143 12.966 29.02 19.14 47.13 25.109zM39.212 243.263c15.023-2.059 27.166-14.613 32.311-29.019 5.145-14.406 4.116-30.048 1.235-45.071-13.377 5.556-26.343 17.287-31.488 30.665-5.351 13.583-4.116 27.989-2.058 43.425z" fill="#F5F6FD"/><path d="M39.212 243.262c9.26-12.142 8.85-29.636 2.263-43.219-6.585-13.789-18.317-24.079-30.87-32.723-5.558 13.378-6.38 30.665-.618 44.043 5.968 13.171 17.082 22.432 29.224 31.899zM44.974 136.449c13.378 1.029 26.343-7.615 33.34-19.14 6.998-11.525 9.056-25.314 9.468-38.691-12.554 2.264-25.932 10.084-32.93 20.786-7.202 10.702-8.849 23.462-9.878 37.045z" fill="#F5F6FD"/><path d="M44.974 136.449c10.29-8.85 13.172-23.874 10.084-37.045-3.087-13.172-11.525-24.285-20.786-34.164-7.409 10.496-11.32 25.52-8.644 38.074 2.676 12.76 10.496 22.639 19.346 33.135zM65.555 57.626S50.737 8.026 101.159 0c0 .206 13.172 45.895-35.604 57.626z" fill="#F5F6FD"/></svg>