<svg width="210" height="553" fill="none" xmlns="http://www.w3.org/2000/svg"><path d="M0 553l1.029-1.029c.823-.617 1.852-1.646 3.293-2.675 1.44-1.235 3.293-2.676 5.35-4.528 1.03-.823 2.265-1.853 3.5-2.882 1.234-1.029 2.47-2.263 3.704-3.292 2.675-2.47 5.557-5.146 8.85-8.027 3.293-2.881 6.586-6.38 10.29-9.878 3.705-3.499 7.409-7.615 11.32-11.731 4.116-4.117 8.026-8.85 12.348-13.584 4.322-4.733 8.438-10.084 12.76-15.435 2.263-2.676 4.322-5.557 6.585-8.438 2.264-2.881 4.528-5.968 6.586-8.85 2.058-3.087 4.322-6.174 6.586-9.467 1.029-1.646 2.264-3.293 3.293-4.939a197.737 197.737 0 013.293-5.145c2.058-3.499 4.322-6.792 6.586-10.291 2.058-3.498 4.116-7.203 6.38-10.907 2.263-3.705 4.116-7.409 6.174-11.32 2.058-3.91 4.116-7.614 5.968-11.73 1.852-3.911 3.91-8.027 5.763-12.143 1.852-4.116 3.498-8.438 5.351-12.554 6.997-17.082 13.171-35.193 18.316-54.127 4.94-18.934 8.438-37.868 10.908-56.185.617-4.528 1.029-9.055 1.647-13.583.411-4.528.617-9.056 1.029-13.378.411-4.527.411-8.849.617-13.171.206-4.322.412-8.644.412-12.966v-12.554c0-4.116-.412-8.232-.412-12.143 0-2.058-.206-3.91-.206-5.968-.206-2.058-.206-3.91-.411-5.968-.412-3.911-.618-7.615-1.029-11.525l-1.235-11.114c-.412-3.704-.824-7.203-1.441-10.702-1.235-6.997-2.058-13.583-3.499-19.757-1.235-6.38-2.469-12.349-3.91-17.905-1.441-5.557-2.47-10.908-4.116-15.847-1.441-4.94-2.676-9.467-3.91-13.584-1.441-4.116-2.676-8.026-3.705-11.319-.617-1.646-1.029-3.293-1.646-4.733-.618-1.441-1.029-2.882-1.647-4.116-1.029-2.676-1.852-4.734-2.47-6.586-.617-1.853-1.234-3.087-1.44-4.116-.412-.824-.412-1.441-.412-1.441s.206.412.618 1.44c.411 1.03.823 2.264 1.646 3.91.618 1.853 1.647 3.911 2.47 6.587.411 1.234 1.029 2.675 1.646 4.116.618 1.44 1.029 3.087 1.647 4.733 1.234 3.499 2.469 7.203 3.91 11.32 1.235 4.116 2.675 8.85 4.116 13.583 1.441 4.94 2.676 10.29 4.116 15.847 1.441 5.557 2.676 11.525 3.911 17.905 1.44 6.174 2.263 12.966 3.498 19.963.618 3.499 1.029 6.998 1.441 10.702.411 3.705 1.029 7.409 1.441 11.114.411 3.704.617 7.614 1.029 11.525.205 1.852.411 3.91.411 5.968s.206 3.91.206 5.968c.206 4.116.412 8.027.412 12.349v12.554c0 4.322-.206 8.644-.206 12.966-.206 4.322-.206 8.849-.618 13.171-.411 4.528-.617 8.85-1.029 13.378-.617 4.527-1.029 9.055-1.646 13.583-2.47 18.316-5.968 37.251-10.908 56.185-5.145 18.934-11.319 37.045-18.522 54.127-1.853 4.322-3.705 8.438-5.351 12.554-1.853 4.116-3.911 8.232-5.763 12.142-1.852 4.116-3.91 7.821-5.968 11.731-2.058 3.911-3.911 7.615-6.174 11.32-2.058 3.704-4.322 7.409-6.38 10.907-2.059 3.499-4.322 6.998-6.586 10.291-1.03 1.646-2.058 3.292-3.293 5.145-1.03 1.646-2.264 3.293-3.293 4.939-2.264 3.293-4.322 6.38-6.586 9.467-2.264 3.087-4.528 5.968-6.586 8.85-2.263 2.881-4.322 5.762-6.585 8.438-4.528 5.351-8.644 10.702-12.966 15.435-4.322 4.734-8.232 9.467-12.349 13.583-4.116 4.116-7.82 8.233-11.525 11.731-3.704 3.499-6.997 6.792-10.29 9.879a750.551 750.551 0 01-9.055 7.821c-1.441 1.234-2.676 2.263-3.91 3.292-1.236 1.029-2.47 1.853-3.5 2.882-2.057 1.646-3.91 3.293-5.556 4.322-1.44 1.235-2.676 2.058-3.293 2.675C.412 552.794 0 553 0 553z" fill="#F5F6FD"/><path d="M84.792 472.53c-17.494-13.172-23.874-37.662-19.963-59.066 3.704-21.61 16.052-40.75 30.253-57.42 12.966 16.464 20.786 40.132 17.905 60.918-3.087 20.581-14.818 37.663-28.195 55.568z" fill="#F5F6FD"/><path d="M84.587 472.53c-3.087-21.61 9.673-43.425 27.578-55.979 17.905-12.554 40.132-17.288 61.947-19.14-2.469 20.786-13.789 43.219-30.459 55.773-16.464 12.348-36.839 16.053-59.066 19.346zM144.476 358.102c-16.67-8.644-25.52-28.195-25.52-46.924 0-18.728 7.615-36.633 17.082-52.892 13.377 11.937 23.462 30.871 23.874 48.776.617 17.905-6.998 34.164-15.436 51.04z" fill="#F5F6FD"/><path d="M144.27 358.102c-5.762-17.905 1.853-38.074 15.23-51.246 13.172-13.171 31.283-20.58 49.394-25.108 1.029 17.905-5.351 38.28-17.494 51.245-12.143 12.966-29.019 19.14-47.13 25.109zM169.79 243.263c-15.024-2.059-27.167-14.613-32.312-29.019-5.145-14.406-4.116-30.048-1.235-45.071 13.378 5.556 26.344 17.287 31.489 30.665 5.351 13.583 4.116 27.989 2.058 43.425z" fill="#F5F6FD"/><path d="M169.79 243.262c-9.261-12.142-8.85-29.636-2.264-43.219 6.586-13.789 18.317-24.079 30.871-32.723 5.557 13.378 6.38 30.665.618 44.043-5.969 13.171-17.082 22.432-29.225 31.899zM164.027 136.449c-13.377 1.029-26.343-7.615-33.34-19.14-6.997-11.525-9.056-25.314-9.467-38.691 12.554 2.264 25.931 10.084 32.929 20.786 7.203 10.702 8.849 23.462 9.878 37.045z" fill="#F5F6FD"/><path d="M164.027 136.449c-10.29-8.85-13.171-23.874-10.084-37.045 3.087-13.172 11.525-24.285 20.786-34.164 7.409 10.496 11.32 25.52 8.644 38.074-2.675 12.76-10.496 22.639-19.346 33.135zM143.447 57.626S158.265 8.026 107.842 0c0 .206-13.171 45.895 35.605 57.626z" fill="#F5F6FD"/></svg>