<svg width="17" height="14" fill="none" xmlns="http://www.w3.org/2000/svg"><path opacity=".2" d="M.208 8.664c0 2.784 1.776 4.368 3.744 4.368 1.776 0 3.264-1.488 3.264-3.312 0-1.776-1.248-3.024-2.88-3.024-.288 0-.672.096-.816.144.336-1.632 1.92-3.6 3.456-4.512L4.72.456C2.08 2.328.208 5.352.208 8.664zm8.88 0c0 2.784 1.776 4.368 3.744 4.368 1.776 0 3.264-1.488 3.264-3.312 0-1.776-1.248-3.024-2.88-3.024-.288 0-.672.096-.816.144.336-1.632 1.92-3.6 3.456-4.512L13.6.456c-2.64 1.872-4.512 4.896-4.512 8.208z" fill="#4A596A"/></svg>