<svg width="271" height="308" fill="none" xmlns="http://www.w3.org/2000/svg"><path fill-rule="evenodd" clip-rule="evenodd" d="M163.03.105c33.807-.81 68.999 2.738 96.34 22.584 27.33 19.837 41.108 52.26 51.129 84.455 9.903 31.815 14.919 65.391 5.461 97.34-9.63 32.528-29.985 61.533-58.132 80.569-27.581 18.654-61.483 23.696-94.798 22.861-32.612-.819-64.23-9.516-91.396-27.531-28.07-18.616-52.265-43.568-63.57-75.239-11.504-32.229-10.272-67.795.978-100.113 11.094-31.872 33.021-58.772 60.954-77.805C97.342 8.592 129.92.898 163.03.105z" fill="#2E81FF"/></svg>