<svg width="272" height="194" fill="none" xmlns="http://www.w3.org/2000/svg"><path opacity=".25" fill-rule="evenodd" clip-rule="evenodd" d="M138.144-65.912c28.646-.683 58.466 2.312 81.634 19.065 23.158 16.745 34.832 44.116 43.324 71.293 8.392 26.857 12.642 55.2 4.627 82.17-8.16 27.459-25.407 51.943-49.258 68.013-23.371 15.747-52.097 20.003-80.327 19.298-27.634-.691-54.426-8.033-77.444-23.24-23.786-15.715-44.288-36.778-53.867-63.514-9.748-27.206-8.704-57.23.828-84.51 9.401-26.905 27.981-49.614 51.65-65.68 23.172-15.73 50.777-22.225 78.833-22.895z" fill="#C5CDDC"/></svg>