<svg width="100" height="100" fill="none" xmlns="http://www.w3.org/2000/svg"><path d="M50 100c27.614 0 50-22.386 50-50S77.614 0 50 0 0 22.386 0 50s22.386 50 50 50z" fill="#FAFAFD"/><path d="M83.35 25.9L59.438 44.65 54.65 48.4l-2.925 2.287a2.075 2.075 0 01-1.887.313l-9.663-3.1-4.337-1.388-2.163-.687L23.9 53.15l-2.362 1.775-.763.562a2.1 2.1 0 01-1.25.413v-4.625l12.5-9.4a2.127 2.127 0 011.875-.313l5.088 1.638 11.05 3.537 3.387-2.637 27.4-21.438a2.052 2.052 0 013.349 1.03 2.05 2.05 0 01-.849 2.208h.025z" fill="#fff" stroke="#2B3D53" stroke-miterlimit="10"/><path d="M83.587 43.5a2.064 2.064 0 00-2.912-.175 72.597 72.597 0 00-6.65 6.45c-2.15 0-7.95-.475-14.625-1.062l-6-.525c-4.6-.413-9.225-.85-13.088-1.25a1.888 1.888 0 00-1.35.337 1.95 1.95 0 00-.35.288l-2.825 3.025-6.25 6.65-.737.787-7.313.988-2 .25V63.5h.35l10.313-1.375a2.162 2.162 0 001.25-.637l3.837-4.238 4.925-5.262.8-.85c5.338.525 9.863.95 13.75 1.25 8.538.775 13.638 1.162 16.725 1.312 4.463.213 4.788-.087 5.213-.475.234-.202.415-.46.525-.75a45.11 45.11 0 013.237-3.262l3.113-2.863a2.063 2.063 0 00.062-2.85zM83.7 61.188l-17.875 8.937a2.01 2.01 0 01-.925.213H19.525v-4.125h44.888l6.962-3.475 8.975-4.5 1.5-.738a2.063 2.063 0 011.85 3.688z" fill="#fff" stroke="#2B3D53" stroke-miterlimit="10"/><path d="M19.525 24.288v50.875h62.563" stroke="#2B3D53" stroke-linecap="round" stroke-linejoin="round"/><path d="M70.4 90.275c0 1.15-9.238 2.062-20.625 2.062-11.388 0-20.625-.912-20.625-2.062s9.237-2.063 20.625-2.063c11.387 0 20.625.925 20.625 2.063z" fill="#FAFAFD"/></svg>