<svg width="100" height="100" fill="none" xmlns="http://www.w3.org/2000/svg"><path d="M50 100c27.614 0 50-22.386 50-50S77.614 0 50 0 0 22.386 0 50s22.386 50 50 50z" fill="#FAFAFD"/><path d="M78.625 51.05a27.763 27.763 0 11-55.526 0 27.763 27.763 0 0155.526 0z" fill="#fff"/><path d="M66.25 41.725h6.25a3.675 3.675 0 003.25-1.95c.075-.15.1-.313.163-.462a27.8 27.8 0 00-17.1-14.863h-4.275a3.675 3.675 0 100 7.35 2.95 2.95 0 010 5.887H43.513a7.35 7.35 0 100 14.7h6.25v3.488a1.663 1.663 0 001.65 1.612 1.65 1.65 0 011.65 1.65v2.1c.025.31-.06.62-.238.875A4.413 4.413 0 0056.25 69.3h1.975c4.775 0 6.25-4.412 6.25-6.625v-7.35a4 4 0 012.15-3.55 5.901 5.901 0 002.813-5 .25.25 0 00-.263-.25H66.25a1.478 1.478 0 01-1.425-1.538V43.2a1.475 1.475 0 011.425-1.475z" fill="#DEDEDE"/><path d="M78.625 51.05a27.763 27.763 0 11-55.526 0 27.763 27.763 0 0155.526 0v0z" stroke="#2B3D53" stroke-linecap="round" stroke-linejoin="round"/><path d="M66.25 41.725h6.25a3.675 3.675 0 003.25-1.95c.075-.15.1-.313.163-.462a27.8 27.8 0 00-17.1-14.863h-4.275a3.675 3.675 0 100 7.35 2.95 2.95 0 010 5.887H43.513a7.35 7.35 0 100 14.7h6.25v3.488a1.662 1.662 0 001.65 1.612 1.65 1.65 0 011.65 1.65v2.1c.025.31-.06.62-.238.875A4.413 4.413 0 0056.25 69.3h1.975c4.775 0 6.25-4.412 6.25-6.625v-7.35a4 4 0 012.15-3.55 5.901 5.901 0 002.813-5 .25.25 0 00-.263-.25H66.25a1.478 1.478 0 01-1.425-1.538V43.2a1.475 1.475 0 011.425-1.475v0z" stroke="#2B3D53" stroke-linecap="round" stroke-linejoin="round"/><path d="M23.575 45.95c-6.25 1.337-10.087 3.125-10.087 5.1 0 4.125 16.737 7.5 37.374 7.5 20.638 0 37.375-3.35 37.375-7.5 0-1.975-3.825-3.75-10.075-5.1" stroke="#2B3D53" stroke-linecap="round" stroke-linejoin="round"/><path d="M55.975 23.738c-1.338-6.25-3.138-10-5.113-10-4.125 0-7.5 16.737-7.5 37.374 0 20.638 3.35 37.375 7.5 37.375 1.975 0 3.75-3.825 5.113-10.075" stroke="#2B3D53" stroke-linecap="round" stroke-linejoin="round"/><path d="M13.488 73.9a2.9 2.9 0 012.162-2.15l4.325-1a.362.362 0 000-.7l-4.325-1a2.9 2.9 0 01-2.162-2.15l-.988-4.325a.35.35 0 00-.35-.275.362.362 0 00-.35.275l-1 4.325a2.863 2.863 0 01-2.15 2.15l-4.325 1a.363.363 0 000 .7l4.325 1a2.863 2.863 0 012.15 2.15l1 4.325a.363.363 0 00.574.2.35.35 0 00.126-.2l.988-4.325z" fill="#fff" stroke="#2B3D53" stroke-linecap="round" stroke-linejoin="round"/><path d="M43.25 68.438c6.351 0 11.5-5.15 11.5-11.5 0-6.352-5.149-11.5-11.5-11.5s-11.5 5.148-11.5 11.5c0 6.35 5.149 11.5 11.5 11.5z" fill="#DEDEDE"/><path d="M43.25 45.438a11.512 11.512 0 00-8.138 19.637l16.25-16.25a11.414 11.414 0 00-8.112-3.388z" fill="#fff"/><path d="M43.25 68.438c6.351 0 11.5-5.15 11.5-11.5 0-6.352-5.149-11.5-11.5-11.5s-11.5 5.148-11.5 11.5c0 6.35 5.149 11.5 11.5 11.5z" stroke="#2B3D53" stroke-miterlimit="10"/><path d="M43.25 62.688v1.437M43.25 49.75v1.438M40.375 59.813a2.875 2.875 0 102.875-2.876 2.875 2.875 0 112.875-2.874" stroke="#2B3D53" stroke-linecap="round" stroke-linejoin="round"/><path d="M73.287 19.488l4.05-1.35a.387.387 0 00.192-.588.375.375 0 00-.192-.137L74 16.3a1.538 1.538 0 01-.963-.963L71.925 12a.362.362 0 00-.363-.262.387.387 0 00-.362.262l-1.113 3.338a1.513 1.513 0 01-.962.962l-3.338 1.113a.375.375 0 00-.186.583.401.401 0 00.186.142l3.338 1.112a1.474 1.474 0 01.962.962l1.163 3.338a.4.4 0 00.362.262.375.375 0 00.363-.262l1.312-4.063zM73.287 87.125l4.05-1.363a.362.362 0 00.263-.362.387.387 0 00-.263-.363l-3.325-1.112a1.5 1.5 0 01-.975-.963l-1.112-3.337a.363.363 0 00-.363-.25.388.388 0 00-.362.25l-1.113 3.337a1.474 1.474 0 01-.962.963l-3.338 1.062a.4.4 0 00-.262.363.375.375 0 00.262.362l3.338 1.113a1.525 1.525 0 01.962.975l1.163 3.437a.4.4 0 00.362.263.374.374 0 00.363-.263l1.312-4.112z" fill="#fff" stroke="#2B3D53" stroke-linecap="round" stroke-linejoin="round"/></svg>