<svg width="102" height="93" fill="none" xmlns="http://www.w3.org/2000/svg"><path d="M50.853 90.928c25.145 0 45.53-20.355 45.53-45.464C96.383 20.354 75.998 0 50.853 0S5.323 20.355 5.323 45.464c0 25.109 20.385 45.464 45.53 45.464z" fill="#FAFAFD"/><path d="M77.932 16.117a.684.684 0 01.49.977l-2.767 5.683a.683.683 0 01-1.297-.284l-.24-6.228a.715.715 0 01.24-.546.649.649 0 01.569-.148l3.005.546zM63.886 16.56a.694.694 0 00-.467.387.658.658 0 000 .613l3.073 5.513a.705.705 0 00.786.33.683.683 0 00.5-.671l-.113-6.24a.647.647 0 00-.273-.523.626.626 0 00-.58-.125l-2.926.716zM51.752 43.884a.73.73 0 01.615-.068.694.694 0 01.41.443l1.844 6.047a.692.692 0 01-.308.795.673.673 0 01-.83-.113l-4.417-4.41a.681.681 0 01-.095-.841.693.693 0 01.209-.216l2.572-1.637zM41.725 53.704a.67.67 0 00-.08.603.704.704 0 00.433.431l6.021 1.955a.695.695 0 00.797-.284.704.704 0 00-.09-.84l-4.326-4.49a.695.695 0 00-.558-.216.718.718 0 00-.512.307l-1.685 2.534zM39.13 19.402a.649.649 0 00-.593-.125.672.672 0 00-.466.386l-2.55 5.785a.692.692 0 00.216.819.672.672 0 00.843 0l4.906-3.853a.694.694 0 00.261-.535.683.683 0 00-.25-.534l-2.368-1.943zM27.428 15.276a.708.708 0 00-.695.54.68.68 0 00.001.312l1.48 6.138a.693.693 0 00.671.523.684.684 0 00.672-.512l1.56-6.035a.658.658 0 00-.115-.58.65.65 0 00-.523-.273l-3.05-.113z" fill="#DEDEDE" stroke="#2B3D53" stroke-linejoin="round"/><path d="M32.744 36.098c-.136-3.08-.683-9.672-3.232-9.297a1.856 1.856 0 00-1.514 2.103l.09.602c.66 4.49-.603 9.456-4.37 10.002l1.377 9.365.478-.068c2.356-.34 3.7 1.137 7.968.512l7.137-1.046a1.65 1.65 0 001.263-1.845A1.648 1.648 0 0040.2 45.02l.808-.125a1.65 1.65 0 001.36-1.858 1.648 1.648 0 00-1.827-1.404l.808-.113a1.654 1.654 0 001.362-1.228 1.645 1.645 0 00-1.197-2.001 1.652 1.652 0 00-.643-.033l.82-.114a1.651 1.651 0 001.394-1.87 1.648 1.648 0 00-1.872-1.392l-8.469 1.216z" fill="#fff"/><path d="M31.117 36.337l1.627-.239M40.097 45.02l-.82.114M40.439 41.633l-.82.126M40.768 38.258l-.808.125" stroke="#2B3D53" stroke-linecap="round" stroke-linejoin="round"/><path d="M2.126 40.996l18.02-2.632a.855.855 0 01.969.72l1.561 10.662a1.135 1.135 0 01-.961 1.289l-17.74 2.59a1.14 1.14 0 01-1.29-.96l-1.52-10.38a1.135 1.135 0 01.961-1.29z" fill="#DEDEDE"/><path d="M2.126 40.996l18.02-2.632a.855.855 0 01.969.72l1.561 10.662a1.135 1.135 0 01-.961 1.289l-17.74 2.59a1.14 1.14 0 01-1.29-.96l-1.52-10.38a1.135 1.135 0 01.961-1.29z" stroke="#2B3D53" stroke-linejoin="round"/><path d="M24.03 49.823l-1.317.192-1.611-10.999 1.318-.192a1.14 1.14 0 011.29.96l1.282 8.75a1.135 1.135 0 01-.962 1.289z" fill="#fff" stroke="#2B3D53" stroke-linecap="round" stroke-linejoin="round"/><path d="M32.744 36.098c-.136-3.08-.683-9.672-3.232-9.297a1.856 1.856 0 00-1.514 2.103l.09.602c.66 4.49-.603 9.456-4.37 10.002l1.377 9.365.478-.068c2.356-.34 3.7 1.137 7.968.512l7.137-1.046a1.65 1.65 0 001.263-1.845A1.648 1.648 0 0040.2 45.02l.808-.125a1.65 1.65 0 001.36-1.858 1.648 1.648 0 00-1.827-1.404l.808-.113a1.654 1.654 0 001.362-1.228 1.645 1.645 0 00-1.197-2.001 1.652 1.652 0 00-.643-.033l.82-.114a1.651 1.651 0 001.394-1.87 1.648 1.648 0 00-1.872-1.392l-8.469 1.216z" stroke="#2B3D53" stroke-linejoin="round"/><path d="M69.236 36.098c.148-3.08.694-9.672 3.244-9.297a1.856 1.856 0 011.56 2.103l-.092.602c-.648 4.49.615 9.456 4.371 10.002l-1.377 9.365-.478-.068c-2.356-.34-3.71 1.137-7.968.512L61.36 48.27a1.654 1.654 0 01-1.484-1.21 1.646 1.646 0 011.285-2.054c.224-.042.455-.038.677.014l-.82-.126a1.654 1.654 0 01-1.361-1.227 1.645 1.645 0 011.196-2.002c.21-.053.429-.064.643-.033l-.82-.113a1.651 1.651 0 01-1.394-1.87 1.648 1.648 0 011.873-1.392l-.808-.114a1.654 1.654 0 01-1.362-1.227 1.645 1.645 0 011.196-2.002c.21-.053.43-.064.644-.033l8.411 1.216z" fill="#fff"/><path d="M70.875 36.337l-1.64-.239M61.894 45.02l.82.114M61.553 41.633l.82.126M61.211 38.258l.82.125" stroke="#2B3D53" stroke-linecap="round" stroke-linejoin="round"/><path d="M98.024 53.612l-17.739-2.59a1.138 1.138 0 01-.961-1.29l1.561-10.66a.852.852 0 01.969-.72l18.02 2.63a1.139 1.139 0 01.961 1.29l-1.52 10.38a1.136 1.136 0 01-1.29.96z" fill="#DEDEDE"/><path d="M98.024 53.612l-17.739-2.59a1.138 1.138 0 01-.961-1.29l1.561-10.66a.852.852 0 01.969-.72l18.02 2.63a1.139 1.139 0 01.961 1.29l-1.52 10.38a1.136 1.136 0 01-1.29.96z" stroke="#2B3D53" stroke-linejoin="round"/><path d="M79.56 38.893l1.318.192-1.61 10.999-1.319-.193a1.138 1.138 0 01-.961-1.289l1.281-8.75a1.136 1.136 0 011.291-.96z" fill="#fff" stroke="#2B3D53" stroke-linecap="round" stroke-linejoin="round"/><path d="M69.236 36.098c.148-3.08.694-9.672 3.244-9.297a1.856 1.856 0 011.56 2.103l-.092.602c-.648 4.49.615 9.456 4.371 10.002l-1.377 9.365-.478-.068c-2.356-.34-3.71 1.137-7.968.512L61.36 48.27a1.654 1.654 0 01-1.484-1.21 1.646 1.646 0 011.285-2.054c.224-.042.455-.038.677.014l-.82-.126a1.654 1.654 0 01-1.361-1.227 1.645 1.645 0 011.196-2.002c.21-.053.429-.064.643-.033l-.82-.113a1.651 1.651 0 01-1.394-1.87 1.648 1.648 0 011.873-1.392l-.808-.114a1.654 1.654 0 01-1.362-1.227 1.645 1.645 0 011.196-2.002c.21-.053.43-.064.644-.033l8.411 1.216z" stroke="#2B3D53" stroke-linejoin="round"/><path d="M51.31 66.309c.33-4.262 1.376-13.321 4.87-12.696a2.561 2.561 0 012.072 2.967l-.159.83c-1.138 6.16.432 13.07 5.6 13.99l-2.3 12.913-.66-.114c-3.232-.58-5.155 1.387-10.95.352l-9.8-1.75a2.278 2.278 0 01-1.96-1.735 2.27 2.27 0 011.834-2.765 2.28 2.28 0 01.923.033l-1.138-.205a2.28 2.28 0 01-1.826-1.75 2.273 2.273 0 011.734-2.71c.293-.064.594-.07.889-.018l-1.138-.193a2.279 2.279 0 01-1.839-2.642 2.275 2.275 0 012.647-1.836l-1.138-.205a2.278 2.278 0 01-1.94-1.742 2.272 2.272 0 011.828-2.754 2.28 2.28 0 01.92.03l11.53 2z" fill="#fff"/><path d="M53.55 66.707l-2.241-.398M40.78 78.289l1.127.193M40.461 73.606l1.116.205M40.143 68.934l1.115.205" stroke="#2B3D53" stroke-linecap="round" stroke-linejoin="round"/><path d="M65.467 87.307L90.68 91.8c.62.11 1.21-.301 1.32-.919l2.7-15.105a1.137 1.137 0 00-.92-1.319l-25.212-4.493a1.138 1.138 0 00-1.32.919l-2.7 15.105c-.11.618.302 1.209.92 1.319z" fill="#DEDEDE"/><path d="M65.467 87.307L90.68 91.8c.62.11 1.21-.301 1.32-.919l2.7-15.105a1.137 1.137 0 00-.92-1.319l-25.212-4.493a1.138 1.138 0 00-1.32.919l-2.7 15.105c-.11.618.302 1.209.92 1.319z" stroke="#2B3D53" stroke-linejoin="round"/><path d="M65.006 70.474l2.24.399-2.7 15.105-2.24-.4a1.138 1.138 0 01-.92-1.318l2.3-12.867a1.136 1.136 0 011.32-.92z" fill="#fff" stroke="#2B3D53" stroke-linecap="round" stroke-linejoin="round"/><path d="M51.31 66.309c.33-4.262 1.376-13.321 4.87-12.696a2.561 2.561 0 012.072 2.967l-.159.83c-1.138 6.16.432 13.07 5.6 13.99l-2.3 12.913-.66-.114c-3.232-.58-5.155 1.387-10.95.352l-9.8-1.75a2.278 2.278 0 01-1.96-1.735 2.27 2.27 0 011.834-2.765 2.28 2.28 0 01.923.033l-1.138-.205a2.28 2.28 0 01-1.826-1.75 2.273 2.273 0 011.734-2.71c.293-.064.594-.07.889-.018l-1.138-.193a2.279 2.279 0 01-1.839-2.642 2.275 2.275 0 012.647-1.836l-1.138-.205a2.278 2.278 0 01-1.94-1.742 2.272 2.272 0 011.828-2.754 2.28 2.28 0 01.92.03l11.53 2z" stroke="#2B3D53" stroke-linejoin="round"/></svg>