<svg width="100" height="105" fill="none" xmlns="http://www.w3.org/2000/svg"><path d="M50 101.227c27.614 0 50-22.576 50-50.425C100 22.954 77.614.378 50 .378S0 22.954 0 50.802c0 27.849 22.386 50.425 50 50.425z" fill="#FAFAFD"/><path d="M35.45 104.378c-.413-.076-.826-.176-1.25-.265" stroke="#2B3D53" stroke-linecap="round" stroke-linejoin="round"/><path d="M30.674 103.042C5.35 93.789 14.424 58.568 34.7 66.585a5.18 5.18 0 011.965 1.474 5.237 5.237 0 011.073 2.22 5.657 5.657 0 01-1.025 4.651 7.78 7.78 0 01-4.236 2.678 7.727 7.727 0 01-4.977-.472c-13.325-5.76-3.75-29.498 12.5-32.851" stroke="#2B3D53" stroke-linecap="round" stroke-linejoin="round" stroke-dasharray="1.97 2.96"/><path d="M41.874 43.995c.413 0 .825-.075 1.25-.088" stroke="#2B3D53" stroke-linecap="round" stroke-linejoin="round"/><path d="M39.112 29.813a1.43 1.43 0 01.348-2.182c.243-.142.522-.207.802-.188l46.25 3.706c.29.026.564.14.788.326.223.187.385.439.462.72a1.423 1.423 0 01-.55 1.526l-37.925 26.94a1.391 1.391 0 01-2.104-.599 1.423 1.423 0 01-.083-.826l3.162-15.997a1.411 1.411 0 00-.337-1.26L39.112 29.812z" fill="#fff" stroke="#2B3D53" stroke-linecap="round" stroke-linejoin="round"/><path d="M50.262 43.239l-3.163 15.997a1.423 1.423 0 00.614 1.462 1.392 1.392 0 001.574-.038l37.912-26.939a1.436 1.436 0 00.55-1.538l-37.5 10.362c.06.227.065.465.013.694z" fill="#DEDEDE" stroke="#2B3D53" stroke-linecap="round" stroke-linejoin="round"/></svg>