<svg width="1440" height="260" fill="none" xmlns="http://www.w3.org/2000/svg"><mask id="a" maskUnits="userSpaceOnUse" x="0" y="0" width="1440" height="260"><path fill="#2B3D53" d="M0 0h1440v260H0z"/></mask><g mask="url(#a)" clip-rule="evenodd"><path d="M-84.77-36.763c76.565-1.835 156.269 6.207 218.191 51.18 61.896 44.956 93.1 118.437 115.796 191.396 22.43 72.1 33.79 148.191 12.368 220.595-21.81 73.716-67.909 139.448-131.656 182.588C67.463 651.27-9.318 662.698-84.77 660.804c-73.861-1.854-145.469-21.565-206.993-62.392-63.573-42.187-118.37-98.733-143.974-170.508-26.055-73.037-23.263-153.64 2.214-226.879 25.127-72.229 74.787-133.192 138.049-176.325 61.933-42.228 135.716-59.665 210.704-61.463zM1245.23-593.763c76.57-1.835 156.27 6.207 218.19 51.181 61.9 44.955 93.1 118.436 115.8 191.395 22.43 72.1 33.79 148.191 12.36 220.595-21.81 73.716-67.9 139.448-131.65 182.588-62.47 42.274-139.25 53.702-214.7 51.808-73.86-1.854-145.47-21.565-206.99-62.392C974.664-.774 919.867-57.32 894.263-129.096c-26.055-73.037-23.263-153.64 2.214-226.879 25.127-72.229 74.787-133.192 138.053-176.325 61.93-42.228 135.71-59.665 210.7-61.463z" stroke="#2E81FF"/><path d="M1118.56 213.168c54.24-1.299 110.7 4.392 154.56 36.222 43.85 31.816 65.95 83.822 82.03 135.457 15.89 51.028 23.94 104.88 8.76 156.124-15.45 52.171-48.1 98.692-93.26 129.224-44.25 29.919-98.64 38.007-152.09 36.666-52.32-1.312-103.05-15.262-146.633-44.156-45.035-29.858-83.852-69.878-101.99-120.676-18.457-51.691-16.479-108.736 1.569-160.57 17.799-51.119 52.978-94.265 97.792-124.792 43.872-29.886 96.142-42.227 149.262-43.499zM471.251-296.886c36.755-.879 75.017 2.969 104.743 24.49 29.714 21.511 44.693 56.673 55.589 91.584 10.767 34.501 16.221 70.911 5.937 105.557-10.47 35.274-32.6 66.728-63.202 87.37-29.987 20.23-66.846 25.697-103.067 24.791-35.457-.887-69.833-10.319-99.368-29.855-30.519-20.187-56.824-47.245-69.116-81.59-12.507-34.949-11.167-73.518 1.063-108.564 12.062-34.562 35.902-63.733 66.271-84.373 29.732-20.206 65.152-28.55 101.15-29.41z" stroke="#4A596A"/></g></svg>