<svg width="26" height="26" fill="none" xmlns="http://www.w3.org/2000/svg"><path d="M21.974 8.302l-.99-.136.99.136c.342-2.49-1.786-4.618-4.276-4.276a1.794 1.794 0 01-1.674-.693c-1.519-2.003-4.53-2.003-6.048 0a1.795 1.795 0 01-1.674.693c-2.49-.342-4.618 1.786-4.276 4.276a1.795 1.795 0 01-.693 1.674c-2.003 1.519-2.003 4.53 0 6.048.516.391.781 1.031.693 1.674-.342 2.49 1.786 4.618 4.276 4.276a1.794 1.794 0 011.674.694c1.519 2.002 4.53 2.002 6.048 0a1.794 1.794 0 011.674-.694c2.49.342 4.618-1.786 4.276-4.276a1.794 1.794 0 01.694-1.674c2.002-1.519 2.002-4.53 0-6.048a1.794 1.794 0 01-.694-1.674z" fill="#2E81FF" stroke="#F5F6FD" stroke-width="2"/><path d="M15.667 11.167l-3.666 3.666-1.667-1.666" stroke="#fff" stroke-width="2" stroke-linecap="round" stroke-linejoin="round"/></svg>