<svg width="114" height="93" fill="none" xmlns="http://www.w3.org/2000/svg"><path d="M109.138 51.352a51.247 51.247 0 00-5.035-22.145 51.39 51.39 0 00-14.118-17.815A51.55 51.55 0 0069.545 1.39a51.629 51.629 0 00-22.766-.234 51.557 51.557 0 00-20.643 9.58 51.388 51.388 0 00-14.483 17.52 51.238 51.238 0 00-.92 44.28h93.809a51.063 51.063 0 004.596-21.184z" fill="#FAFAFA"/><path d="M6.793 72.536h100.414M1 72.536h3.218M109.781 72.536H113" stroke="#242B33" stroke-linecap="round" stroke-linejoin="round"/><path d="M38.913 79.456c12.265 0 22.207-.994 22.207-2.22 0-1.228-9.942-2.222-22.207-2.222s-22.207.994-22.207 2.221 9.942 2.221 22.207 2.221z" fill="#FAFAFA"/><path d="M85.541 68.376v5.136a1.474 1.474 0 00.914 1.364c.18.074.372.112.567.112h13.324a1.467 1.467 0 001.48-1.476v-5.136H85.541z" fill="#DEDEDE"/><path d="M101.826 68.376v-.745a1.718 1.718 0 00-1.288-1.643c-2.575-.757-3.45-3.723-1.557-4.198a.734.734 0 00.566-.72v-.821a1.487 1.487 0 00-1.48-1.477h-8.87a1.483 1.483 0 00-1.48 1.477v.822a.73.73 0 00.553.719c1.905.475.99 3.44-1.545 4.198a1.726 1.726 0 00-1.287 1.643v.745h16.388zM58.159 30.72a3.69 3.69 0 00-1.095-2.612 3.706 3.706 0 00-2.626-1.074H23.361a3.7 3.7 0 00-2.604 1.084 3.68 3.68 0 00-1.077 2.601v41.342a3.692 3.692 0 001.081 2.597c.69.69 1.624 1.081 2.6 1.088h34.76l.038-45.027z" fill="#fff"/><path d="M58.159 30.72a3.69 3.69 0 00-1.095-2.612 3.706 3.706 0 00-2.626-1.074H23.361a3.7 3.7 0 00-2.604 1.084 3.68 3.68 0 00-1.077 2.601v41.342a3.693 3.693 0 001.081 2.597c.69.69 1.624 1.081 2.6 1.088h34.76l.038-45.027z" stroke="#242B33" stroke-linecap="round" stroke-linejoin="round"/><path d="M52.237 35.149a1.487 1.487 0 00-1.48-1.477H27.069a1.482 1.482 0 00-1.48 1.477v31.006c0 1.362.542 2.668 1.508 3.631a5.157 5.157 0 003.641 1.505h21.5V35.149z" fill="#fff"/><path d="M30.764 71.33a5.157 5.157 0 003.64-1.505 5.129 5.129 0 001.51-3.632c0-1.362.542-2.668 1.507-3.63a5.156 5.156 0 013.642-1.505h11.11v10.335l-21.41-.064z" fill="#DEDEDE"/><path d="M52.237 35.149a1.487 1.487 0 00-1.48-1.477H27.069a1.482 1.482 0 00-1.48 1.477v31.006c0 1.362.542 2.668 1.508 3.631a5.157 5.157 0 003.641 1.505h21.5V35.149z" stroke="#242B33" stroke-linecap="round" stroke-linejoin="round"/><path d="M44.14 32.196v-.732c0-.587-.233-1.15-.648-1.566a2.23 2.23 0 00-1.567-.655v-1.477c0-.783-.312-1.534-.867-2.088a2.965 2.965 0 00-4.187 0 2.949 2.949 0 00-.867 2.088v1.477a2.243 2.243 0 00-1.572.654 2.23 2.23 0 00-.656 1.567v.732c-.785 0-1.538.31-2.093.864a2.949 2.949 0 00-.868 2.089v1.476H47.05v-1.476a2.95 2.95 0 00-.849-2.07 2.964 2.964 0 00-2.06-.883z" fill="#DEDEDE"/><path d="M44.14 32.196v-.732c0-.587-.233-1.15-.648-1.566a2.23 2.23 0 00-1.567-.655v-1.477c0-.783-.312-1.534-.867-2.088a2.965 2.965 0 00-4.187 0 2.949 2.949 0 00-.867 2.088v1.477a2.243 2.243 0 00-1.572.654 2.23 2.23 0 00-.656 1.567v.732c-.785 0-1.538.31-2.093.864a2.949 2.949 0 00-.868 2.089v1.476H47.05v-1.476a2.95 2.95 0 00-.849-2.07 2.964 2.964 0 00-2.06-.883v0z" stroke="#242B33" stroke-linecap="round" stroke-linejoin="round"/><path d="M38.913 27.034a.75.75 0 00-.778.431.743.743 0 00.778 1.046.747.747 0 00.649-.738.743.743 0 00-.65-.739z" fill="#242B33"/><path d="M37.433 32.94h2.96M32.244 42.531h13.324M32.244 47.705h13.324M32.244 52.867h7.402M32.244 58.04h5.188M41.127 60.994a5.156 5.156 0 00-3.641 1.504 5.129 5.129 0 00-1.508 3.631 5.129 5.129 0 01-1.509 3.632 5.157 5.157 0 01-3.64 1.504" stroke="#242B33" stroke-linecap="round" stroke-linejoin="round"/><path d="M72.963 66.155a5.129 5.129 0 00-1.508-3.632 5.156 5.156 0 00-3.641-1.504H41.127c1.366 0 2.675.541 3.641 1.505a5.129 5.129 0 011.508 3.63v16.987a8.838 8.838 0 002.602 6.264A8.883 8.883 0 0055.16 92H76.8a.735.735 0 00.707-.539.73.73 0 00-.333-.822 8.767 8.767 0 01-3.09-3.198 8.738 8.738 0 01-1.12-4.3V66.155z" fill="#fff"/><path d="M72.963 66.155a5.129 5.129 0 00-1.508-3.632 5.156 5.156 0 00-3.641-1.504H41.127c1.366 0 2.675.541 3.641 1.505a5.129 5.129 0 011.508 3.63v16.987a8.838 8.838 0 002.602 6.264A8.883 8.883 0 0055.16 92H76.8a.735.735 0 00.707-.539.73.73 0 00-.333-.822 8.767 8.767 0 01-3.09-3.198 8.738 8.738 0 01-1.12-4.3V66.155z" stroke="#242B33" stroke-linecap="round" stroke-linejoin="round"/><path d="M75.036 58.773a2.227 2.227 0 013.064-.72l1.944-3.132-6.295-3.852-1.97 3.107a2.22 2.22 0 01.99 1.377 2.209 2.209 0 01-.868 2.303 2.222 2.222 0 01-2.465.082l-2.73 4.404c1.571 2.786-.682 8.268-.682 8.268s3.862-4.493 7.042-4.34l2.73-4.39A2.226 2.226 0 0174.72 59.6c.048-.294.156-.576.316-.828z" fill="#fff"/><path d="M75.036 58.773a2.227 2.227 0 013.064-.72l1.944-3.132-6.295-3.852-1.97 3.107a2.22 2.22 0 01.99 1.377 2.209 2.209 0 01-.868 2.303 2.222 2.222 0 01-2.465.082l-2.73 4.404c1.571 2.786-.682 8.268-.682 8.268s3.862-4.493 7.042-4.34l2.73-4.39A2.226 2.226 0 0174.72 59.6c.048-.294.156-.576.316-.828v0z" stroke="#242B33" stroke-linecap="round" stroke-linejoin="round"/><path d="M79.171 42.256l-5.451 8.79 6.295 3.883 5.452-8.79-6.296-3.883z" fill="#DEDEDE"/><path d="M79.171 42.256l-5.451 8.79 6.295 3.883 5.452-8.79-6.296-3.883zM65.96 70.559l5.072-8.166" stroke="#242B33" stroke-linecap="round" stroke-linejoin="round"/><path d="M97.939 23.44a2.33 2.33 0 00-.836-3.088 2.348 2.348 0 00-3.142.635L79.169 42.25l6.295 3.851L97.94 23.44z" fill="#fff"/><path d="M97.939 23.44a2.33 2.33 0 00-.836-3.088 2.348 2.348 0 00-3.142.635L79.169 42.25l6.295 3.851L97.94 23.44zM52.97 69.108h6.67M52.97 74.282h14.072M52.97 79.443h6.67M101.826 68.376v-.745a1.718 1.718 0 00-1.288-1.643c-2.575-.757-3.45-3.723-1.557-4.198a.734.734 0 00.566-.72v-.821a1.487 1.487 0 00-1.48-1.477h-8.87a1.483 1.483 0 00-1.48 1.477v.822a.73.73 0 00.553.719c1.905.475.99 3.44-1.545 4.198a1.726 1.726 0 00-1.287 1.643v.745h16.388zM92.209 61.725h2.96M85.541 68.376v5.136a1.474 1.474 0 00.914 1.364c.18.074.372.112.567.112h13.324a1.467 1.467 0 001.48-1.476v-5.136H85.541z" stroke="#242B33" stroke-linecap="round" stroke-linejoin="round"/></svg>