<svg width="92" height="92" fill="none" xmlns="http://www.w3.org/2000/svg"><path d="M46 92c25.405 0 46-20.595 46-46S71.405 0 46 0 0 20.595 0 46s20.595 46 46 46z" fill="#FAFAFA"/><path d="M63.458 15.088H22.472a3.036 3.036 0 00-3.037 3.036v32.637a3.036 3.036 0 003.037 3.036h40.986a3.036 3.036 0 003.036-3.036V18.124a3.036 3.036 0 00-3.036-3.036z" fill="#DEDEDE"/><path d="M56.983 15.088h-34.5a3.048 3.048 0 00-3.036 3.036v32.637c.007.517.146 1.024.403 1.472l37.133-37.145z" fill="#fff"/><path d="M42.527 82.766c7.158 0 12.96-.85 12.96-1.898s-5.802-1.897-12.96-1.897c-7.158 0-12.96.849-12.96 1.897s5.802 1.898 12.96 1.898z" fill="#DEDEDE"/><path d="M63.458 15.088H22.472a3.036 3.036 0 00-3.037 3.036v32.637a3.036 3.036 0 003.037 3.036h40.986a3.036 3.036 0 003.036-3.036V18.124a3.036 3.036 0 00-3.036-3.036z" stroke="#242B33" stroke-linejoin="round"/><path d="M63.458 15.088H22.472a3.036 3.036 0 00-3.037 3.036v6.026h47.059v-6.026a3.036 3.036 0 00-3.036-3.036z" fill="#fff" stroke="#242B33" stroke-linejoin="round"/><path d="M27.025 34.063a2.277 2.277 0 100-4.554 2.277 2.277 0 000 4.554zM27.025 41.653a2.277 2.277 0 100-4.554 2.277 2.277 0 000 4.554z" fill="#DEDEDE" stroke="#242B33" stroke-linejoin="round"/><path d="M33.098 31.786h11.385M33.098 39.376H54.35" stroke="#242B33" stroke-linecap="round" stroke-linejoin="round"/><path d="M27.025 49.243a2.277 2.277 0 100-4.554 2.277 2.277 0 000 4.554z" fill="#DEDEDE" stroke="#242B33" stroke-linejoin="round"/><path d="M33.098 46.966H54.35" stroke="#242B33" stroke-linecap="round" stroke-linejoin="round"/><path d="M23.99 21.16a1.518 1.518 0 100-3.036 1.518 1.518 0 000 3.036zM30.061 21.16a1.518 1.518 0 100-3.036 1.518 1.518 0 000 3.036zM36.133 21.16a1.518 1.518 0 100-3.036 1.518 1.518 0 000 3.036z" fill="#fff" stroke="#242B33" stroke-linejoin="round"/><path d="M58.903 35.581c7.545 0 13.662-6.117 13.662-13.662 0-7.545-6.117-13.662-13.662-13.662-7.545 0-13.662 6.117-13.662 13.662 0 7.545 6.117 13.662 13.662 13.662z" fill="#fff"/><path d="M58.903 35.581c7.545 0 13.662-6.117 13.662-13.662 0-7.545-6.117-13.662-13.662-13.662-7.545 0-13.662 6.117-13.662 13.662 0 7.545 6.117 13.662 13.662 13.662z" stroke="#242B33" stroke-linejoin="round"/><path d="M59.72 15.157l1.644 3.335a.944.944 0 00.678.494l3.68.53a.908.908 0 01.506 1.552l-2.668 2.588a.897.897 0 00-.253.805l.621 3.657a.896.896 0 01-1.31.954l-3.29-1.725a.909.909 0 00-.84 0L55.2 29.072a.897.897 0 01-1.311-.954l.62-3.657a.875.875 0 00-.264-.805l-2.656-2.588a.909.909 0 01.506-1.518l3.668-.529a.932.932 0 00.69-.494l1.645-3.336a.908.908 0 011.621-.034z" fill="#DEDEDE" stroke="#242B33" stroke-linecap="round" stroke-linejoin="round"/><path d="M21.827 65.032c.332.004.66.07.966.196l11.397 4.6c.453.184.937.278 1.426.276h1.15a2.53 2.53 0 010-5.06h4.899c4.07 0 3.116-4.427 10.28-4.427h6.958v13.949a15.027 15.027 0 00-5.83.701l-2.806.99a21.77 21.77 0 01-12.018.712c-.69-.057-16.698-6.819-17.4-7.06a2.53 2.53 0 01.978-4.877z" fill="#fff"/><path d="M36.766 70.115h10.752" stroke="#242B33" stroke-miterlimit="10" stroke-linecap="round"/><path d="M21.827 65.032c.332.004.66.07.966.196l11.397 4.6c.453.184.937.278 1.426.276h1.15a2.53 2.53 0 010-5.06h4.899c4.07 0 3.116-4.427 10.28-4.427h6.958v13.949a15.027 15.027 0 00-5.83.701l-2.806.99a21.77 21.77 0 01-12.018.712c-.69-.057-16.698-6.819-17.4-7.06a2.53 2.53 0 01.978-4.877v0z" stroke="#242B33" stroke-linecap="round" stroke-linejoin="round"/><path d="M63.86 77.096h6.555a1.15 1.15 0 001.15-1.15V58.638a1.15 1.15 0 00-1.15-1.15h-6.556a1.15 1.15 0 00-1.15 1.15v17.308c0 .635.515 1.15 1.15 1.15z" fill="#DEDEDE" stroke="#242B33" stroke-linejoin="round"/><path d="M63.86 77.096h6.555a1.15 1.15 0 001.15-1.15V58.638a1.15 1.15 0 00-1.15-1.15h-6.556a1.15 1.15 0 00-1.15 1.15v17.308c0 .635.515 1.15 1.15 1.15z" stroke="#242B33" stroke-linejoin="round"/><path d="M60.053 58.754h2.645V75.83h-2.645a1.15 1.15 0 01-1.15-1.15V59.904a1.15 1.15 0 011.15-1.15z" fill="#fff" stroke="#242B33" stroke-linecap="round" stroke-linejoin="round"/></svg>