<svg width="111" height="92" fill="none" xmlns="http://www.w3.org/2000/svg"><path d="M105.615 50.2a50.276 50.276 0 00-4.901-21.648 50.187 50.187 0 00-13.74-17.415A50.078 50.078 0 0067.083 1.36a50.027 50.027 0 00-22.156-.229 50.074 50.074 0 00-20.09 9.365 50.186 50.186 0 00-14.095 17.127 50.277 50.277 0 00-.896 43.288h91.297a49.906 49.906 0 004.473-20.71z" fill="#FAFAFA"/><path d="M6.638 70.91h97.724M1 70.91h3.132M106.868 70.91H110" stroke="#242B33" stroke-linecap="round" stroke-linejoin="round"/><path d="M71.286 55.058h-6.039v-12.84c0-.802.318-1.572.884-2.139a3.017 3.017 0 015.155 2.139v12.84zM93.15 55.058H78.815l1.391-13.23A1.256 1.256 0 0181.46 40.7h9.046a1.251 1.251 0 011.253 1.13l1.39 13.229z" fill="#DEDEDE"/><path d="M71.286 55.058h-6.039v-12.84c0-.802.318-1.572.884-2.139a3.017 3.017 0 012.135-.886v0c.801 0 1.57.319 2.136.886.566.567.884 1.337.884 2.139v12.84z" stroke="#242B33" stroke-linecap="round" stroke-linejoin="round"/><path d="M93.901 58.07H58.47v12.84H93.9V58.07z" fill="#fff"/><path d="M93.15 55.058H78.815l1.391-13.23A1.256 1.256 0 0181.46 40.7h9.046a1.251 1.251 0 011.253 1.13l1.39 13.229z" stroke="#242B33" stroke-linecap="round" stroke-linejoin="round"/><path d="M69.732 61.886a.654.654 0 01-.639.703c-.4 0-.714-.29-1.253-.29-.538 0-.79.227-.79.628 0 .992 3.22.364 3.22 2.85a2.302 2.302 0 01-1.577 2.13 2.29 2.29 0 01-.928.104c-.74 0-2.33-.176-2.33-1.08a.653.653 0 01.639-.69c.45 0 .99.377 1.616.377.626 0 .99-.352.99-.829 0-1.13-3.22-.452-3.22-2.686a2.224 2.224 0 011.49-2.067c.286-.1.589-.139.89-.117.539 0 1.892.201 1.892.967zM72.915 61.722a1.129 1.129 0 011.027-.803 1.076 1.076 0 011.028.803l1.891 5.234c.042.118.067.24.075.364a.642.642 0 01-.664.628.676.676 0 01-.701-.502l-.288-.929h-2.681l-.289.891a.654.654 0 01-.689.515.687.687 0 01-.639-.992l1.93-5.209zm.125 3.54h1.83l-.89-2.787-.94 2.787zM77.864 61.722a.705.705 0 01.726-.753.687.687 0 01.714.753v4.795h1.717a.65.65 0 01.689.69.678.678 0 01-.69.64h-2.405a.713.713 0 01-.751-.79v-5.335zM82.437 61.873c0-.49.238-.84.752-.84h2.38a.639.639 0 01.69.664.666.666 0 01-.69.666h-1.69v1.405h1.578a.651.651 0 01.701.666.665.665 0 01-.701.665h-1.579v1.418h1.78a.639.639 0 01.688.665.666.666 0 01-.689.665h-2.506a.713.713 0 01-.739-.727l.025-5.247z" fill="#242B33"/><path d="M94.15 55.058H58.207c-.692 0-1.253.562-1.253 1.255v.514c0 .694.561 1.256 1.253 1.256h35.945c.692 0 1.253-.562 1.253-1.255v-.515c0-.693-.561-1.255-1.253-1.255z" fill="#fff" stroke="#242B33" stroke-linecap="round" stroke-linejoin="round"/><path d="M83.338 40.7v-2.637a2.654 2.654 0 011.584-2.61 2.64 2.64 0 013.545 1.542c.121.343.17.706.146 1.068V40.7" stroke="#242B33" stroke-linecap="round" stroke-linejoin="round"/><path d="M81.535 49.774H68.718v5.284h12.817v-5.284z" fill="#DEDEDE" stroke="#242B33" stroke-linecap="round" stroke-linejoin="round"/><path d="M81.786 46.749H68.468c-.692 0-1.253.562-1.253 1.255v.515c0 .693.56 1.255 1.253 1.255h13.318c.692 0 1.253-.562 1.253-1.255v-.515c0-.693-.561-1.255-1.253-1.255z" fill="#DEDEDE" stroke="#242B33" stroke-linecap="round" stroke-linejoin="round"/><path d="M77.011 45.996h-3.77v9.062h3.77v-9.062z" fill="#fff" stroke="#242B33" stroke-linecap="round" stroke-linejoin="round"/><path d="M93.901 58.07H58.47v12.84H93.9V58.07z" stroke="#242B33" stroke-linecap="round" stroke-linejoin="round"/><path d="M35.09 91.996c7.958 0 14.409-.972 14.409-2.171 0-1.2-6.451-2.172-14.408-2.172-7.958 0-14.408.973-14.408 2.172 0 1.199 6.45 2.171 14.408 2.171z" fill="#FAFAFA"/><path d="M39.951 84.767a7.692 7.692 0 013.27.69v-24.94H24.178v24.25h3.758a7.843 7.843 0 013.233.665l.664-15.388a1.809 1.809 0 011.804-1.807 1.802 1.802 0 011.804 1.807l.639 14.723h3.871z" fill="#fff"/><path d="M39.951 84.767a7.692 7.692 0 013.27.69v-24.94H24.178v24.25h3.758a7.843 7.843 0 013.233.665l.664-15.388a1.809 1.809 0 011.804-1.807 1.802 1.802 0 011.804 1.807l.639 14.723h3.871z" stroke="#242B33" stroke-linecap="round" stroke-linejoin="round"/><path d="M45.653 89.11c0-3.1-3.032-4.33-5.701-4.33h-3.759v2.886a1.432 1.432 0 001.391 1.444h8.069zM33.712 89.11c0-3.1-3.02-4.33-5.7-4.33h-3.834v2.886a1.446 1.446 0 001.466 1.444h8.068z" fill="#DEDEDE" stroke="#242B33" stroke-linecap="round" stroke-linejoin="round"/><path d="M33.725 11.73a8.637 8.637 0 00-6.113 2.537 8.668 8.668 0 00-2.532 6.124v1.732c-2.505 0-2.292 4.343.439 4.343a8.633 8.633 0 003.67 4.765 8.607 8.607 0 0011.128-1.733 8.645 8.645 0 002.053-5.655V20.39c0-2.297-.91-4.5-2.532-6.124a8.637 8.637 0 00-6.113-2.536z" fill="#fff" stroke="#242B33" stroke-linecap="round" stroke-linejoin="round"/><path d="M32.222 21.257a1.09 1.09 0 00-1.083 1.297 1.092 1.092 0 001.484.805 1.09 1.09 0 00.361-1.778 1.089 1.089 0 00-.762-.324zM38.7 21.257a1.089 1.089 0 00-1.084 1.297 1.093 1.093 0 00.853.865 1.088 1.088 0 001.308-1.07 1.082 1.082 0 00-.663-1.009 1.075 1.075 0 00-.415-.083z" fill="#242B33"/><path d="M31.131 25.813a.867.867 0 01-1.033.85.864.864 0 01-.63-1.181.867.867 0 01.799-.535.864.864 0 01.864.866z" fill="#DEDEDE"/><path d="M33.299 27.244a3.242 3.242 0 003.758.364c.18-.11.351-.231.514-.364" stroke="#242B33" stroke-linecap="round" stroke-linejoin="round"/><path d="M28.977 16.915c3.758 3.677 10.323 3.075 14.257 1.732a9.535 9.535 0 00-2.785-6.737 9.5 9.5 0 00-13.448 0 9.535 9.535 0 00-2.785 6.736v3s4.76-1.255 4.76-4.757" fill="#fff"/><path d="M28.977 16.915c3.758 3.677 10.323 3.075 14.257 1.732a9.535 9.535 0 00-2.785-6.737 9.5 9.5 0 00-13.448 0 9.535 9.535 0 00-2.785 6.736v3s4.76-1.255 4.76-4.757" stroke="#242B33" stroke-linecap="round" stroke-linejoin="round"/><path d="M28.977 16.915c3.758 3.677 10.323 3.075 14.257 1.732a9.535 9.535 0 00-2.785-6.737 9.5 9.5 0 00-13.448 0 9.535 9.535 0 00-2.785 6.736v3s4.76-1.255 4.76-4.757M28.977 16.914a3.963 3.963 0 01-.865-.903" stroke="#242B33" stroke-linecap="round" stroke-linejoin="round"/><path d="M24.178 67.446a2.6 2.6 0 01-.76 1.837 2.59 2.59 0 01-4.427-1.837v-3.44h5.187v3.44z" fill="#fff" stroke="#242B33" stroke-linecap="round" stroke-linejoin="round"/><path d="M55.826 36.708l-5.45-2.423c-1.604 2.435-4.761 5.146-7.242 5.335a14.616 14.616 0 00-11.439-4.167A15.025 15.025 0 0022 40.35a15.077 15.077 0 00-3.873 10.163v11.962a1.447 1.447 0 00.885 1.42c.184.077.382.115.58.11h4.586v6.502h4.66a5.818 5.818 0 004.85-2.598 5.842 5.842 0 004.848 2.598h4.686V50.062a4.222 4.222 0 012.781-4.003 17.536 17.536 0 005.85-3.687 17.572 17.572 0 003.973-5.664z" fill="#fff"/><path d="M55.826 36.708l-5.45-2.423c-1.604 2.435-4.761 5.146-7.242 5.335a14.616 14.616 0 00-11.439-4.167A15.025 15.025 0 0022 40.35a15.077 15.077 0 00-3.873 10.163v11.962a1.447 1.447 0 00.885 1.42c.184.077.382.115.58.11h4.586v6.502h4.66a5.818 5.818 0 004.85-2.598 5.842 5.842 0 004.848 2.598h4.686V50.062a4.222 4.222 0 012.781-4.003 17.535 17.535 0 005.85-3.687 17.572 17.572 0 003.973-5.664v0zM24.203 63.982V49.259" stroke="#242B33" stroke-linecap="round" stroke-linejoin="round"/><path d="M33.712 57.92l6.014-20.798a14.502 14.502 0 00-12.215-.728l6.201 21.525zM39.727 37.122L33.713 57.92l6.916-9.526v-4.33l3.433-3.44a14.65 14.65 0 00-4.335-3.5z" fill="#fff" stroke="#242B33" stroke-linecap="round" stroke-linejoin="round"/><path d="M33.713 35.44l-2.569 13.58 2.569 8.912 2.568-8.911-2.568-13.58z" fill="#DEDEDE" stroke="#242B33" stroke-linecap="round" stroke-linejoin="round"/><path d="M33.713 67.885V57.92M38.336 41.892l-4.61-6.452-4.636 6.452" stroke="#242B33" stroke-linecap="round" stroke-linejoin="round"/><path d="M33.712 57.92l-6.214-21.526a14.922 14.922 0 00-5.012 3.326l4.36 4.33v4.33l6.866 9.54z" fill="#fff" stroke="#242B33" stroke-linecap="round" stroke-linejoin="round"/><path d="M67.026 17.567a2.594 2.594 0 011.1 1.662 2.604 2.604 0 01-.398 1.953M68.956 14.655a6.056 6.056 0 012.57 3.876 6.073 6.073 0 01-.929 4.559M70.897 11.768a9.558 9.558 0 014.062 6.127 9.583 9.583 0 01-1.48 7.203" stroke="#242B33" stroke-linecap="round" stroke-linejoin="round"/><path d="M55.951 38.29a1.737 1.737 0 01-1.629 1.832 1.73 1.73 0 01-1.829-1.632l-.726-12.551 3.457-.201.727 12.551z" fill="#fff" stroke="#242B33" stroke-linejoin="round"/><path d="M64.86 27.006a1.457 1.457 0 01-1.263 1.5c-.238.031-.48.003-.705-.082a56.993 56.993 0 00-11.125-2.51l-.351-6.063a56.725 56.725 0 0010.762-3.765 1.438 1.438 0 011.902.51c.128.206.202.44.216.682l.563 9.728z" fill="#fff"/><path d="M51.741 25.889l-1.253.075a3.029 3.029 0 01-2.129-.805 3.04 3.04 0 011.791-5.257l1.253-.076.338 6.063z" fill="#DEDEDE" stroke="#242B33" stroke-linejoin="round"/><path d="M64.86 27.006a1.457 1.457 0 01-1.263 1.5c-.238.031-.48.003-.705-.082a56.993 56.993 0 00-11.125-2.51l-.351-6.063a56.725 56.725 0 0010.762-3.765 1.438 1.438 0 011.902.51c.128.206.202.44.216.682l.563 9.728z" stroke="#242B33" stroke-linejoin="round"/><path d="M52.995 36.18a2.594 2.594 0 01-1.877-.658 2.604 2.604 0 011.588-4.538l2.794-.351a1.463 1.463 0 011.103.314c.3.262.484.632.513 1.029l.126 2.322a1.42 1.42 0 01-1.253 1.506l-2.994.377z" fill="#fff" stroke="#242B33" stroke-linecap="round" stroke-linejoin="round"/></svg>