<svg width="186" height="147" viewBox="0 0 186 147" fill="none" xmlns="http://www.w3.org/2000/svg">
<path d="M177.462 101.938C177.484 113.131 175.271 124.217 170.952 134.544H15.0472C10.2205 123.008 8.01475 110.545 8.58919 98.0534C9.16364 85.562 12.5039 73.3538 18.369 62.31C24.2341 51.2661 32.4777 41.6619 42.5049 34.1906C52.5321 26.7192 64.0929 21.567 76.3529 19.1058C88.6129 16.6445 101.266 16.9355 113.4 19.9579C125.534 22.9803 136.846 28.6586 146.519 36.5831C156.192 44.5076 163.985 54.4806 169.336 65.7825C174.687 77.0843 177.463 89.4332 177.462 101.938Z" fill="#F4F4F4"/>
<path d="M110.391 48.5936V35.7224C110.385 33.8938 111.089 32.1344 112.356 30.8156C113.623 29.4969 115.352 28.7219 117.18 28.6544C117.303 28.636 117.428 28.636 117.552 28.6544C118.481 28.6519 119.401 28.833 120.259 29.1873C121.118 29.5416 121.898 30.0622 122.555 30.719C123.87 32.0669 124.605 33.8764 124.601 35.7596V41.5628C124.601 43.4373 125.346 45.2351 126.671 46.5606C127.997 47.8861 129.795 48.6308 131.669 48.6308L110.391 48.5936Z" fill="#F4F4F4" stroke="#242B33" stroke-width="1.25" stroke-linecap="round" stroke-linejoin="round"/>
<path d="M110.372 35.7244V132.965C110.367 133.383 110.199 133.782 109.904 134.078C109.608 134.373 109.209 134.541 108.791 134.546H29.2763C28.857 134.546 28.4549 134.38 28.1584 134.083C27.8619 133.787 27.6953 133.384 27.6953 132.965V35.7244C27.6976 33.8443 28.4391 32.0405 29.7599 30.7024C30.4177 30.0481 31.1984 29.5305 32.0571 29.1793C32.9158 28.8282 33.8356 28.6505 34.7633 28.6564H117.18C115.349 28.7192 113.615 29.4921 112.344 30.8114C111.074 32.1307 110.366 33.8927 110.372 35.7244Z" fill="white" stroke="#242B33" stroke-width="1.25" stroke-linecap="round" stroke-linejoin="round"/>
<path d="M117.46 28.6562H117.088" stroke="#242B33" stroke-width="1.25" stroke-linecap="round" stroke-linejoin="round"/>
<path d="M95.8652 66.6562H101.65" stroke="#242B33" stroke-width="1.25" stroke-linecap="round" stroke-linejoin="round"/>
<path d="M95.8634 92.1758H89.3906" stroke="#242B33" stroke-width="1.25" stroke-linecap="round" stroke-linejoin="round"/>
<path d="M140.913 87.5811C140.924 94.1268 138.751 100.489 134.738 105.66C133.195 107.65 131.408 109.437 129.418 110.98C124.366 114.894 118.176 117.055 111.786 117.136H111.339C106.983 117.148 102.68 116.181 98.747 114.309C93.1003 111.68 88.428 107.334 85.3966 101.892C82.3652 96.4506 81.1294 90.1907 81.8654 84.0053C82.6015 77.8198 85.2718 72.0247 89.4957 67.4464C93.7195 62.8681 99.281 59.7404 105.387 58.5093C107.352 58.1115 109.353 57.9121 111.358 57.9141H111.804C119.585 58.0315 127.005 61.2125 132.454 66.7666C137.904 72.3208 140.944 79.7999 140.913 87.5811Z" fill="#F4F4F4" stroke="#242B33" stroke-width="1.25" stroke-linecap="round" stroke-linejoin="round"/>
<path d="M111.34 110.793C106.749 110.793 102.261 109.431 98.4434 106.881C94.6261 104.33 91.6509 100.705 89.8939 96.4631C88.137 92.2216 87.6773 87.5542 88.573 83.0514C89.4687 78.5486 91.6795 74.4124 94.9258 71.1661C98.1722 67.9197 102.308 65.7089 106.811 64.8132C111.314 63.9176 115.981 64.3772 120.223 66.1342C124.464 67.8911 128.09 70.8663 130.64 74.6837C133.191 78.501 134.553 82.9889 134.553 87.58C134.548 93.7349 132.1 99.6363 127.748 103.988C123.396 108.341 117.495 110.788 111.34 110.793Z" fill="white" stroke="#242B33" stroke-width="1.25" stroke-linecap="round" stroke-linejoin="round"/>
<path d="M133.008 114.589L129.418 110.98" stroke="#242B33" stroke-width="1.25" stroke-linecap="round" stroke-linejoin="round"/>
<path d="M138.328 109.269L134.738 105.66" stroke="#242B33" stroke-width="1.25" stroke-linecap="round" stroke-linejoin="round"/>
<path d="M156.427 123.572L140.226 107.371L131.131 116.466L147.331 132.667C148.552 133.802 150.165 134.42 151.831 134.39C153.498 134.36 155.087 133.685 156.266 132.506C157.444 131.328 158.12 129.738 158.15 128.071C158.18 126.405 157.562 124.792 156.427 123.572Z" fill="white" stroke="#242B33" stroke-width="1.25" stroke-linecap="round" stroke-linejoin="round"/>
<path d="M100.793 38.6055H37.2559V46.3989H100.793V38.6055Z" fill="#F4F4F4" stroke="#242B33" stroke-width="1.25" stroke-linecap="round" stroke-linejoin="round"/>
<path d="M37.2559 54.6016H100.793" stroke="#242B33" stroke-width="1.25" stroke-linecap="round" stroke-linejoin="round"/>
<path d="M37.2559 63.25H84.1093" stroke="#242B33" stroke-width="1.25" stroke-linecap="round" stroke-linejoin="round"/>
<path d="M37.2559 71.8984H79.1245" stroke="#242B33" stroke-width="1.25" stroke-linecap="round" stroke-linejoin="round"/>
<path d="M37.2559 80.5508H76.6321" stroke="#242B33" stroke-width="1.25" stroke-linecap="round" stroke-linejoin="round"/>
<path d="M37.2559 89.1992H75.0139" stroke="#242B33" stroke-width="1.25" stroke-linecap="round" stroke-linejoin="round"/>
<path d="M37.2559 97.8477H76.6321" stroke="#242B33" stroke-width="1.25" stroke-linecap="round" stroke-linejoin="round"/>
<path d="M61.6777 107.836H37.2559V119.461H61.6777V107.836Z" fill="#F4F4F4" stroke="#242B33" stroke-width="1.25" stroke-linecap="round" stroke-linejoin="round"/>
<path d="M67.9277 119.461H91.4753" stroke="#242B33" stroke-width="1.25" stroke-linecap="round" stroke-linejoin="round"/>
<path d="M67.9277 112.617H81.7661" stroke="#242B33" stroke-width="1.25" stroke-linecap="round" stroke-linejoin="round"/>
<path d="M37.2559 126.305H100.793" stroke="#242B33" stroke-width="1.25" stroke-linecap="round" stroke-linejoin="round"/>
<path d="M88.5176 89.9061L103.342 96.1929L113.33 84.6609L122.146 89.3667L144.057 67.9767L137.231 65.8563L156.649 63.9219L151.497 82.6149L150.158 76.1793L121.495 97.7739L113.888 93.0867L103.584 102.963L88.5176 89.9061Z" fill="#F4F4F4" stroke="#242B33" stroke-width="1.25" stroke-linecap="round" stroke-linejoin="round"/>
<path d="M98.0036 81.3681C99.4544 84.4743 102.672 86.0367 105.202 84.8649C106.296 84.2408 107.139 83.2557 107.587 82.0783C108.035 80.9008 108.06 79.6043 107.657 78.4107L116.046 74.5047L117.162 76.8855L121.105 75.0255L119.989 72.6447L120.9 72.2913L119.728 69.7617L106.467 75.9369C105.822 74.8523 104.817 74.0288 103.627 73.6106C102.437 73.1923 101.138 73.206 99.9566 73.6491C97.427 74.7837 96.5528 78.2619 98.0036 81.3681ZM100.329 80.2893C99.8874 79.6147 99.7188 78.7977 99.8569 78.0036C99.9951 77.2095 100.43 76.4974 101.073 76.0113C102.319 75.4347 104.011 76.4019 104.793 78.1875C105.574 79.9731 105.295 81.9075 104.049 82.4655C102.802 83.0235 101.147 82.0563 100.329 80.2893Z" fill="#F4F4F4" stroke="#242B33" stroke-width="1.25" stroke-linecap="round" stroke-linejoin="round"/>
<path d="M119.244 75.9158L118.352 74" stroke="#242B33" stroke-width="1.25" stroke-linecap="round" stroke-linejoin="round"/>
</svg>
