<svg width="186" height="147" viewBox="0 0 186 147" fill="none" xmlns="http://www.w3.org/2000/svg">
<path d="M177.462 101.928C177.484 113.122 175.271 124.207 170.952 134.534H15.0472C10.2205 122.998 8.01475 110.535 8.58919 98.0436C9.16364 85.5522 12.5039 73.3441 18.369 62.3002C24.2341 51.2563 32.4777 41.6522 42.5049 34.1808C52.5321 26.7095 64.0929 21.5573 76.3529 19.096C88.6129 16.6347 101.266 16.9258 113.4 19.9481C125.534 22.9705 136.846 28.6488 146.519 36.5733C156.192 44.4978 163.985 54.4708 169.336 65.7727C174.687 77.0746 177.463 89.4234 177.462 101.928Z" fill="#F4F4F4"/>
<path d="M130.87 68.9883H58.7201C57.7442 68.9883 56.9531 69.7794 56.9531 70.7553V72.7269C56.9531 73.7028 57.7442 74.4939 58.7201 74.4939H130.87C131.845 74.4939 132.637 73.7028 132.637 72.7269V70.7553C132.637 69.7794 131.845 68.9883 130.87 68.9883Z" fill="white" stroke="#242B33" stroke-width="1.1" stroke-linecap="round" stroke-linejoin="round"/>
<path d="M161.057 100.812L166.246 134.46H170.282L164.516 99.6777" fill="white"/>
<path d="M161.057 100.812L166.246 134.46H170.282L164.516 99.6777" stroke="#242B33" stroke-width="1.1" stroke-linecap="round" stroke-linejoin="round"/>
<path d="M142.941 100.59L137.324 134.46H141.379L145.88 105.11" fill="white"/>
<path d="M142.941 100.59L137.324 134.46H141.379L145.88 105.11" stroke="#242B33" stroke-width="1.1" stroke-linecap="round" stroke-linejoin="round"/>
<path d="M167.01 62.4227V94.8611C167.005 96.4382 166.376 97.9492 165.261 99.0644C164.146 100.18 162.635 100.808 161.058 100.813H158.1C158.369 95.1381 158.151 89.4505 157.449 83.8127C157.914 83.0315 158.193 82.4735 158.193 82.4735L158.658 82.6595C160.525 78.9416 161.781 74.9473 162.378 70.8299C162.416 70.5155 162.378 70.1965 162.267 69.8999L159.253 60.9347C159.393 60.5613 159.613 60.2232 159.898 59.9444C160.183 59.6656 160.526 59.453 160.902 59.3216C161.279 59.1903 161.679 59.1434 162.076 59.1843C162.472 59.2252 162.855 59.3529 163.197 59.5583L164.759 59.8373C165.379 59.9337 165.945 60.2461 166.356 60.7191C166.768 61.1922 167 61.7956 167.01 62.4227Z" fill="#F4F4F4" stroke="#242B33" stroke-width="1.1" stroke-linecap="round" stroke-linejoin="round"/>
<path d="M163.27 59.5391V90.6569C163.29 92.0775 162.785 93.4555 161.851 94.5265C160.917 95.5975 159.621 96.286 158.211 96.4601" stroke="#242B33" stroke-width="1.1" stroke-linecap="round" stroke-linejoin="round"/>
<path d="M144.67 96.7207C144.67 97.5949 144.559 98.4691 144.484 99.3433C144.484 99.8269 144.391 100.311 144.335 100.813C143.866 100.816 143.4 100.734 142.959 100.571C142.113 100.301 141.372 99.7744 140.839 99.0643L140.15 98.0599C141.824 97.5949 143.461 97.1299 144.67 96.7207Z" fill="#F4F4F4" stroke="#242B33" stroke-width="1.1" stroke-linecap="round" stroke-linejoin="round"/>
<path d="M140.132 98.0596L140.113 98.041" stroke="#242B33" stroke-width="1.1" stroke-linecap="round" stroke-linejoin="round"/>
<path d="M145.265 84.0156C145.154 88.3308 144.949 92.553 144.67 96.7194C143.461 97.1286 141.824 97.5936 140.132 98.0586C137.174 98.877 134.031 99.6582 132.58 99.9186L131.78 100.123C130.367 104.587 128.748 108.977 126.944 113.255C124.838 118.236 122.473 123.103 119.858 127.837H112.957L121.513 98.319L122.201 95.9568C122.529 94.7832 123.252 93.7585 124.247 93.0552C129.292 89.4764 134.704 86.446 140.392 84.0156H145.265Z" fill="white" stroke="#242B33" stroke-width="1.1" stroke-linecap="round" stroke-linejoin="round"/>
<path d="M150.661 52.1738C152.664 52.7941 154.492 53.8774 155.999 55.3358C157.122 56.4099 158.053 57.668 158.752 59.0558C158.752 59.0558 155.032 61.2506 156.427 66.9236L157.859 70.811C157.859 70.811 157.003 79.2926 155.552 81.4316L156.092 81.6548L154.567 84.3146C154.567 84.3146 150.661 85.6724 150.475 87.1604C150.475 87.551 151.033 87.4022 151.944 86.9558C151.302 87.9727 150.526 88.8986 149.638 89.7086C149.638 89.7086 149.991 91.0292 152.576 89.7086C154.436 88.7972 156.408 85.6724 157.468 83.8682C158.161 89.4881 158.373 95.1569 158.101 100.813C158.101 101.334 158.101 101.631 158.101 101.631C155.18 103.491 149.526 104.626 145.899 105.128C145.025 105.24 144.262 105.314 143.686 105.351L144.132 102.394V102.264C144.132 101.78 144.262 101.296 144.318 100.813C144.374 100.329 144.43 99.827 144.467 99.3434C144.467 98.4692 144.597 97.595 144.653 96.7208C144.932 92.5544 145.136 88.3322 145.248 84.017C145.36 79.7018 145.434 75.554 145.415 71.2388" fill="white"/>
<path d="M150.661 52.1738C152.664 52.7941 154.492 53.8774 155.999 55.3358C157.122 56.4099 158.053 57.668 158.752 59.0558C158.752 59.0558 155.032 61.2506 156.427 66.9236L157.859 70.811C157.859 70.811 157.003 79.2926 155.552 81.4316L156.092 81.6548L154.567 84.3146C154.567 84.3146 150.661 85.6724 150.475 87.1604C150.475 87.551 151.033 87.4022 151.944 86.9558C151.302 87.9727 150.526 88.8986 149.638 89.7086C149.638 89.7086 149.991 91.0292 152.576 89.7086C154.436 88.7972 156.408 85.6724 157.468 83.8682C158.161 89.4881 158.373 95.1569 158.101 100.813C158.101 101.334 158.101 101.631 158.101 101.631C155.18 103.491 149.526 104.626 145.899 105.128C145.025 105.24 144.262 105.314 143.686 105.351L144.132 102.394V102.264C144.132 101.78 144.262 101.296 144.318 100.813C144.374 100.329 144.43 99.827 144.467 99.3434C144.467 98.4692 144.597 97.595 144.653 96.7208C144.932 92.5544 145.136 88.3322 145.248 84.017C145.36 79.7018 145.434 75.554 145.415 71.2388" stroke="#242B33" stroke-width="1.1" stroke-linecap="round" stroke-linejoin="round"/>
<path d="M156.351 66.8496C154.491 70.6812 156.203 79.2186 156.203 79.2186C156.206 79.2806 156.206 79.3426 156.203 79.4046" stroke="#242B33" stroke-width="1.1" stroke-linecap="round" stroke-linejoin="round"/>
<path d="M162.452 70.8101C161.855 74.9274 160.599 78.9218 158.732 82.6397L158.267 82.4537L156.016 81.5795L155.477 81.3563C156.927 79.2173 157.783 70.7357 157.783 70.7357L156.351 66.8483C155.049 61.2683 158.676 58.9805 158.676 58.9805L159.327 60.8405L162.34 69.8057C162.464 70.1251 162.502 70.4713 162.452 70.8101Z" fill="white" stroke="#242B33" stroke-width="1.1" stroke-linecap="round" stroke-linejoin="round"/>
<path d="M158.211 82.4543C158.211 82.4543 157.932 83.0123 157.467 83.7935C156.407 85.6535 154.38 88.7225 152.576 89.6339C149.99 90.9545 149.637 89.6339 149.637 89.6339C150.525 88.8238 151.301 87.8979 151.943 86.8811C151.032 87.3275 150.418 87.4763 150.474 87.0857C150.623 85.6721 154.491 84.2399 154.491 84.2399L156.017 81.5801L158.211 82.4543Z" fill="white" stroke="#242B33" stroke-width="1.1" stroke-linecap="round" stroke-linejoin="round"/>
<path d="M141.955 67.6117C141.806 68.5603 141.658 69.4717 141.546 70.1227C141.434 70.7737 141.341 71.6479 141.286 72.4105L140.393 84.0169C138.198 84.6307 136.171 85.2073 134.311 85.7653C134.311 85.7653 137.268 61.5853 139.891 58.9813C139.882 58.814 139.882 58.6464 139.891 58.4791C140.116 56.9626 140.757 55.5381 141.742 54.3629C142.726 53.1878 144.017 52.3078 145.471 51.8203" fill="white"/>
<path d="M141.955 67.6117C141.806 68.5603 141.658 69.4717 141.546 70.1227C141.434 70.7737 141.341 71.6479 141.286 72.4105L140.393 84.0169C138.198 84.6307 136.171 85.2073 134.311 85.7653C134.311 85.7653 137.268 61.5853 139.891 58.9813C139.882 58.814 139.882 58.6464 139.891 58.4791C140.116 56.9626 140.757 55.5381 141.742 54.3629C142.726 53.1878 144.017 52.3078 145.471 51.8203" stroke="#242B33" stroke-width="1.1" stroke-linecap="round" stroke-linejoin="round"/>
<path d="M155.924 55.3362C154.439 53.8877 152.637 52.8051 150.66 52.1742C150.16 51.4529 149.948 50.5704 150.065 49.7005C150.567 48.7536 150.774 47.6784 150.66 46.6129C151.046 46.5043 151.395 46.2929 151.671 46.0014C151.946 45.7098 152.137 45.349 152.223 44.9575C152.301 44.7374 152.324 44.5012 152.287 44.2703C152.251 44.0395 152.157 43.8215 152.014 43.6363C151.872 43.4511 151.685 43.3048 151.471 43.2106C151.257 43.1165 151.023 43.0776 150.79 43.0975C150.381 43.0975 150.102 43.5624 149.916 44.0088C149.823 44.3076 149.748 44.6121 149.693 44.9203C149.324 44.1074 148.73 43.417 147.982 42.9301C147.049 42.151 146.294 41.1805 145.768 40.0843C145.165 41.533 144.026 42.6925 142.588 43.3206V45.5527C142.514 46.3567 142.615 47.1673 142.885 47.9283C143.155 48.6894 143.586 49.3829 144.15 49.9608C144.531 50.3163 144.964 50.6112 145.434 50.8351C145.434 50.8351 145.434 51.2256 145.434 51.8208C143.98 52.3084 142.689 53.1883 141.705 54.3635C140.72 55.5386 140.079 56.9632 139.854 58.4797C139.408 57.6607 139.174 56.7431 139.174 55.8106C139.174 54.878 139.408 53.9604 139.854 53.1414C140.97 51.2814 141.174 45.8502 141.211 42.9486C141.222 41.0462 141.878 39.2036 143.071 37.722C143.512 37.0288 144.148 36.482 144.9 36.1508C145.652 35.8197 146.485 35.7192 147.294 35.862C151.404 36.7548 153.357 37.2198 154.064 41.8884C154.771 46.557 154.12 52.0068 155.924 55.3362Z" fill="#A6A6A6" stroke="#242B33" stroke-width="1.1" stroke-linecap="round" stroke-linejoin="round"/>
<path d="M152.147 44.9571C152.061 45.3487 151.87 45.7095 151.595 46.001C151.32 46.2926 150.971 46.5039 150.585 46.6125C150.699 47.678 150.491 48.7532 149.99 49.7001C149.672 50.2427 149.181 50.6622 148.595 50.8905C148.096 51.1065 147.558 51.2179 147.014 51.2179C146.47 51.2179 145.932 51.1065 145.433 50.8905C144.959 50.6496 144.526 50.3358 144.149 49.9605C143.567 49.3983 143.114 48.7161 142.822 47.9613C142.53 47.2066 142.405 46.3972 142.457 45.5895V43.3575C143.895 42.7294 145.034 41.5698 145.637 40.1211C146.163 41.2174 146.918 42.1879 147.851 42.9669C148.599 43.4538 149.193 44.1443 149.562 44.9571C149.617 44.6489 149.692 44.3445 149.785 44.0457C149.971 43.5993 150.25 43.1529 150.659 43.1343C150.892 43.1068 151.128 43.1385 151.346 43.2265C151.563 43.3145 151.755 43.4558 151.903 43.6375C152.052 43.8192 152.152 44.0354 152.194 44.266C152.237 44.4967 152.221 44.7344 152.147 44.9571Z" fill="white" stroke="#242B33" stroke-width="1.1" stroke-linecap="round" stroke-linejoin="round"/>
<path d="M135.297 121.644H135.185L130.944 124.192H130.796L126.945 113.274C128.805 108.996 130.368 104.606 131.781 100.142L132.581 99.9375L135.297 121.644Z" fill="white" stroke="#242B33" stroke-width="1.1" stroke-linecap="round" stroke-linejoin="round"/>
<path d="M140.394 84.0156C134.706 86.446 129.294 89.4764 124.249 93.0552C123.253 93.7585 122.531 94.7832 122.203 95.9568L121.515 98.319L120.361 94.4502C120.165 93.9004 120.132 93.3054 120.268 92.7374C120.403 92.1694 120.701 91.6531 121.124 91.251C122.984 89.391 127.504 87.7914 134.311 85.671C136.171 85.299 138.199 84.6294 140.394 84.0156Z" fill="white" stroke="#242B33" stroke-width="1.1" stroke-linecap="round" stroke-linejoin="round"/>
<path d="M145.34 51.8203C145.244 53.3221 144.798 54.7805 144.038 56.0797C144.038 56.2285 142.829 61.1203 142.68 62.7199C142.68 63.5197 142.271 65.6587 141.955 67.5931" fill="#F4F4F4"/>
<path d="M145.34 51.8203C145.244 53.3221 144.798 54.7805 144.038 56.0797C144.038 56.2285 142.829 61.1203 142.68 62.7199C142.68 63.5197 142.271 65.6587 141.955 67.5931" stroke="#242B33" stroke-width="1.1" stroke-linecap="round" stroke-linejoin="round"/>
<path d="M150.66 52.1731L147.498 56.0977C145.229 57.2881 144.113 56.0977 144.113 56.0977C144.873 54.7985 145.319 53.3401 145.415 51.8383C145.415 51.2431 145.415 50.8525 145.415 50.8525C145.914 51.0685 146.452 51.18 146.996 51.18C147.54 51.18 148.078 51.0685 148.577 50.8525C149.163 50.6242 149.655 50.2048 149.972 49.6621C149.872 50.5563 150.118 51.455 150.66 52.1731Z" fill="white" stroke="#242B33" stroke-width="1.1" stroke-linecap="round" stroke-linejoin="round"/>
<path d="M145.433 71.2009C145.433 75.5161 145.433 79.7941 145.266 83.9791H140.393L141.36 72.4099C141.36 71.6473 141.509 70.8847 141.62 70.1221C141.732 69.3595 141.881 68.5597 142.029 67.6111C142.346 65.7511 142.68 63.5377 142.755 62.7379C142.904 61.1383 144.075 56.2465 144.113 56.0977C144.15 55.9489 145.229 57.2881 147.498 56.0977C146.534 61.0905 145.845 66.1325 145.433 71.2009Z" fill="white" stroke="#242B33" stroke-width="1.1" stroke-linecap="round" stroke-linejoin="round"/>
<path d="M137.826 127.002C137.791 127.238 137.703 127.463 137.567 127.66C137.432 127.857 137.253 128.02 137.045 128.137C135.985 128.769 133.678 130.108 131.855 130.945C129.4 132.08 128.396 131.95 126.964 131.075C125.531 130.201 129.475 128.248 129.475 128.248C130.609 130.238 134.385 127.913 135.371 127.076C135.664 126.804 135.882 126.461 136.003 126.079C136.124 125.698 136.143 125.291 136.059 124.9L136.468 124.677C136.755 124.634 137.047 124.698 137.29 124.855C137.533 125.013 137.711 125.254 137.789 125.533C137.912 126.013 137.925 126.516 137.826 127.002Z" fill="#A6A6A6" stroke="#242B33" stroke-width="1.1" stroke-linecap="round" stroke-linejoin="round"/>
<path d="M135.371 127.075C134.385 127.912 130.609 130.237 129.475 128.246C130.474 127.138 131.001 125.683 130.944 124.192L135.185 121.699L136.059 124.898C136.143 125.29 136.124 125.696 136.003 126.078C135.882 126.459 135.664 126.803 135.371 127.075Z" fill="white" stroke="#242B33" stroke-width="1.1" stroke-linecap="round" stroke-linejoin="round"/>
<path d="M130.943 124.192V124.174" stroke="#242B33" stroke-width="1.1" stroke-linecap="round" stroke-linejoin="round"/>
<path d="M103.77 81.0971H85.821L82.7148 74.4941H106.876L103.77 81.0971Z" fill="white" stroke="#242B33" stroke-width="1.1" stroke-linecap="round" stroke-linejoin="round"/>
<path d="M101.724 130.795H87.8672L90.0992 81.0957H99.4922L101.724 130.795Z" fill="white" stroke="#242B33" stroke-width="1.1" stroke-linecap="round" stroke-linejoin="round"/>
<path d="M80.3883 130.796H109.2C109.512 130.788 109.823 130.843 110.114 130.958C110.405 131.072 110.67 131.244 110.893 131.462C111.117 131.68 111.294 131.941 111.416 132.229C111.537 132.517 111.599 132.827 111.599 133.139V134.46H78.1191V133.139C78.1191 132.518 78.3661 131.922 78.8056 131.482C79.2451 131.043 79.8412 130.796 80.4627 130.796H80.3883Z" fill="white" stroke="#242B33" stroke-width="1.1" stroke-linecap="round" stroke-linejoin="round"/>
<path d="M54.982 134.459H48.6952L46.8352 133.101V134.459H43.1152V129.307H47.5048C47.5048 129.307 48.3418 130.478 52.0804 131.167C53.4593 131.343 54.7312 132.002 55.6702 133.027C55.763 133.159 55.8188 133.314 55.832 133.475C55.8451 133.636 55.8151 133.798 55.7451 133.944C55.675 134.09 55.5674 134.214 55.4333 134.305C55.2992 134.395 55.1435 134.448 54.982 134.459Z" fill="#A6A6A6" stroke="#242B33" stroke-width="1.1" stroke-linecap="round" stroke-linejoin="round"/>
<path d="M73.693 134.459H67.4062L65.5462 133.102V134.459H61.8262V129.94L66.2716 129.475C67.5906 130.447 69.1572 131.027 70.7914 131.149C72.1743 131.312 73.4504 131.973 74.3812 133.009C74.4858 133.139 74.5516 133.297 74.5711 133.463C74.5905 133.63 74.5627 133.798 74.4909 133.949C74.4191 134.101 74.3063 134.229 74.1652 134.319C74.0241 134.409 73.8604 134.458 73.693 134.459Z" fill="#A6A6A6" stroke="#242B33" stroke-width="1.1" stroke-linecap="round" stroke-linejoin="round"/>
<path d="M49.4205 37.0703C47.5605 39.5999 47.2629 39.6371 47.2443 39.6371L46.8351 38.0561C46.8351 38.0561 40.1391 38.7257 37.4235 36.4565L36.5493 40.1765C36.5493 40.1765 36.5493 39.5627 36.3819 38.9303C36.2145 38.2979 36.0285 37.6469 35.7123 37.6097C35.0613 37.5167 33.8523 37.9445 34.2429 39.9533C34.4751 41.1406 35.1375 42.2003 36.1029 42.9293L35.7123 46.6493C34.7404 45.9322 33.9475 44.9999 33.3957 43.9254C32.844 42.8509 32.5482 41.6633 32.5317 40.4555C32.4486 39.2542 32.6534 38.0504 33.1289 36.944C33.6045 35.8377 34.3371 34.8607 35.2659 34.0943C35.2659 34.0943 34.8753 30.2441 40.2507 30.3743C45.2169 30.3743 43.7847 33.3317 47.1699 32.8853C47.471 32.8339 47.7591 32.7237 48.0176 32.5609C48.2761 32.3982 48.5 32.1861 48.6765 31.9367L49.0671 31.3787C49.0671 31.3787 51.3735 34.4663 49.4205 37.0703Z" fill="#A6A6A6" stroke="#242B33" stroke-width="1.1" stroke-linecap="round" stroke-linejoin="round"/>
<path d="M47.2434 39.6375C47.2434 39.9351 45.5694 46.2405 41.8494 47.8029C41.157 48.0953 40.4026 48.2104 39.6546 48.1377C38.3721 48.088 37.1263 47.6963 36.0462 47.0031C35.9102 46.9127 35.7853 46.8066 35.6742 46.6869L36.0648 42.9669C35.0993 42.2379 34.437 41.1782 34.2048 39.9909C33.7956 37.9821 35.0232 37.5543 35.6742 37.6473C35.9904 37.6473 36.2136 38.3169 36.3438 38.9679C36.474 39.6189 36.5112 40.2141 36.5112 40.2141L37.3854 36.4941C40.101 38.7633 46.797 38.0937 46.797 38.0937L47.2434 39.6375Z" fill="white" stroke="#242B33" stroke-width="1.1" stroke-linecap="round" stroke-linejoin="round"/>
<path d="M39.6921 51.2618L38.1669 53.1776L34.0749 49.811L33.7773 49.5692L35.4885 48.416L36.0465 48.788L39.6921 51.2618Z" fill="white" stroke="#242B33" stroke-width="1.1" stroke-linecap="round" stroke-linejoin="round"/>
<path d="M44.3434 50.3326L43.8598 50.7418L41.7952 52.6018L39.6934 51.2626L41.9812 49.3468L42.502 48.9004L44.3434 50.3326Z" fill="white" stroke="#242B33" stroke-width="1.1" stroke-linecap="round" stroke-linejoin="round"/>
<path d="M46.3329 94.283C45.8467 95.6704 45.5039 97.1038 45.3099 98.561L44.9193 99.0818C44.6011 99.484 44.2175 99.8298 43.7847 100.105C43.0819 100.563 42.2615 100.809 41.4225 100.812H24.6825C23.4415 100.807 22.2326 100.417 21.2229 99.6956C20.453 99.1457 19.8252 98.4201 19.3918 97.5791C18.9583 96.7381 18.7316 95.8058 18.7305 94.8596V62.4212C18.7295 61.8007 18.9471 61.1996 19.345 60.7235C19.7429 60.2473 20.2958 59.9265 20.9067 59.8172L22.4505 59.5382C23.2178 59.0601 24.1038 58.8066 25.008 58.8066C25.9121 58.8066 26.7981 59.0601 27.5655 59.5382C27.2493 65.1182 27.1005 75.683 29.2767 79.7378C29.5305 80.1978 29.9203 80.5681 30.3927 80.798L29.4627 88.238C29.4009 89.4918 29.8309 90.7201 30.6612 91.6616C31.4915 92.603 32.6564 93.1832 33.9081 93.2786L46.3329 94.283Z" fill="#F4F4F4" stroke="#242B33" stroke-width="1.1" stroke-linecap="round" stroke-linejoin="round"/>
<path d="M56.6561 89.3175L55.9121 93.0375L48.6023 129.308H42.8735C42.8735 129.308 43.0037 125.588 43.3013 120.547C43.5803 115.748 43.9895 109.722 44.5289 104.588C44.7521 102.375 45.0125 100.31 45.3101 98.5803C45.5041 97.1231 45.8469 95.6897 46.3331 94.3023L33.9083 93.3165C32.6566 93.2211 31.4917 92.6409 30.6614 91.6995C29.8311 90.758 29.4011 89.5297 29.4629 88.2759L30.3929 80.8359C30.7639 81.0366 31.1801 81.139 31.6019 81.1335H41.9435C46.2567 81.9816 50.453 83.3429 54.4427 85.1883C55.2291 85.5186 55.8781 86.109 56.2811 86.8607C56.684 87.6125 56.8164 88.4798 56.6561 89.3175Z" fill="white" stroke="#242B33" stroke-width="1.1" stroke-linecap="round" stroke-linejoin="round"/>
<path d="M66.9604 129.326H66.2722L61.8082 129.94H61.1572C57.5136 117.99 55.7442 105.548 55.912 93.0564L56.656 89.3364C56.8256 88.4931 56.6978 87.6171 56.2942 86.8575C55.8907 86.0978 55.2363 85.5015 54.4426 85.17C50.4528 83.3246 46.2566 81.9633 41.9434 81.1152H46.5004C51.2133 81.413 55.8924 82.1099 60.4876 83.1984C61.2275 83.3946 61.8888 83.8142 62.3815 84.4C62.8741 84.9859 63.1741 85.7095 63.2404 86.472L66.9604 129.326Z" fill="white" stroke="#242B33" stroke-width="1.1" stroke-linecap="round" stroke-linejoin="round"/>
<path d="M47.375 62.5898V63.2594" stroke="#242B33" stroke-width="1.1" stroke-linecap="round" stroke-linejoin="round"/>
<path d="M30.6343 59.1477C33.0431 62.0606 35.8998 64.572 39.0973 66.5877C40.2009 67.2592 41.4281 67.7023 42.706 67.8908C43.984 68.0793 45.2868 68.0093 46.5373 67.6851L47.1883 67.4992C47.1907 72.0401 46.961 76.5782 46.5001 81.0958H31.6201C31.1983 81.1013 30.7821 80.9988 30.4111 80.7982C29.9387 80.5682 29.5489 80.1979 29.2951 79.7379C27.1189 75.6831 27.2677 65.0998 27.5839 59.5384C27.5839 58.5526 27.6955 57.6783 27.7513 57.1203C28.1419 52.7679 33.5173 50.0895 34.0939 49.8105L38.1673 53.1771L39.7111 51.3171L41.8129 52.6564L43.8775 50.7964C44.7433 51.5962 45.4888 52.5172 46.0909 53.5305C46.1658 53.6379 46.2341 53.7497 46.2955 53.8653C46.4317 54.0913 46.5499 54.3276 46.6489 54.5721C46.8299 54.9412 46.9732 55.3276 47.0767 55.7253C47.0767 56.0043 47.2069 56.2648 47.2627 56.5438C47.255 56.5868 47.255 56.6309 47.2627 56.674C47.2627 57.3064 47.3743 58.5339 47.3743 60.0777C47.3743 60.6729 47.3743 61.7518 47.3743 62.626C46.3181 62.7559 45.2499 62.7559 44.1937 62.626C42.8173 62.1796 37.9999 57.9574 34.8937 55.186" fill="white"/>
<path d="M30.6343 59.1477C33.0431 62.0606 35.8998 64.572 39.0973 66.5877C40.2009 67.2592 41.4281 67.7023 42.706 67.8908C43.984 68.0793 45.2868 68.0093 46.5373 67.6851L47.1883 67.4992C47.1907 72.0401 46.961 76.5782 46.5001 81.0958H31.6201C31.1983 81.1013 30.7821 80.9988 30.4111 80.7982C29.9387 80.5682 29.5489 80.1979 29.2951 79.7379C27.1189 75.6831 27.2677 65.0998 27.5839 59.5384C27.5839 58.5526 27.6955 57.6783 27.7513 57.1203C28.1419 52.7679 33.5173 50.0895 34.0939 49.8105L38.1673 53.1771L39.7111 51.3171L41.8129 52.6564L43.8775 50.7964C44.7433 51.5962 45.4888 52.5172 46.0909 53.5305C46.1658 53.6379 46.2341 53.7497 46.2955 53.8653C46.4317 54.0913 46.5499 54.3276 46.6489 54.5721C46.8299 54.9412 46.9732 55.3276 47.0767 55.7253C47.0767 56.0043 47.2069 56.2648 47.2627 56.5438C47.255 56.5868 47.255 56.6309 47.2627 56.674C47.2627 57.3064 47.3743 58.5339 47.3743 60.0777C47.3743 60.6729 47.3743 61.7518 47.3743 62.626C46.3181 62.7559 45.2499 62.7559 44.1937 62.626C42.8173 62.1796 37.9999 57.9574 34.8937 55.186" stroke="#242B33" stroke-width="1.1" stroke-linecap="round" stroke-linejoin="round"/>
<path d="M46.4992 81.0957C46.4992 81.2259 46.4993 81.2817 46.4062 81.2817" stroke="#242B33" stroke-width="1.1" stroke-linecap="round" stroke-linejoin="round"/>
<path d="M47.2617 66.8301V67.4997" stroke="#242B33" stroke-width="1.1" stroke-linecap="round" stroke-linejoin="round"/>
<path d="M34.9119 55.0566C37.9995 57.8466 42.8169 62.0688 44.2119 62.4966C45.2681 62.6266 46.3363 62.6266 47.3925 62.4966C52.0797 62.3292 59.9661 61.1202 59.9661 61.1202V61.4736L60.1521 64.0404L47.1321 67.4628L46.4811 67.6488C45.2307 67.973 43.9278 68.0429 42.6499 67.8544C41.3719 67.6659 40.1447 67.2229 39.0411 66.5514C35.8436 64.5357 32.9869 62.0243 30.5781 59.1114" fill="white"/>
<path d="M34.9119 55.0566C37.9995 57.8466 42.8169 62.0688 44.2119 62.4966C45.2681 62.6266 46.3363 62.6266 47.3925 62.4966C52.0797 62.3292 59.9661 61.1202 59.9661 61.1202V61.4736L60.1521 64.0404L47.1321 67.4628L46.4811 67.6488C45.2307 67.973 43.9278 68.0429 42.6499 67.8544C41.3719 67.6659 40.1447 67.2229 39.0411 66.5514C35.8436 64.5357 32.9869 62.0243 30.5781 59.1114" stroke="#242B33" stroke-width="1.1" stroke-linecap="round" stroke-linejoin="round"/>
<path d="M69.6201 59.4649C69.3425 60.3758 68.8126 61.1895 68.0917 61.8116C67.3708 62.4338 66.4884 62.839 65.5467 62.9803C63.7799 63.4182 61.992 63.7658 60.1899 64.0219L60.0039 61.4551C60.3431 61.4752 60.6829 61.4262 61.0026 61.3111C61.3223 61.196 61.6153 61.0172 61.8639 60.7855C62.4591 60.0229 65.2305 57.7723 66.3093 58.4233C66.6441 58.6279 66.1977 59.1487 65.4351 59.7253C65.4909 59.7811 69.8433 58.7023 69.6201 59.4649Z" fill="white" stroke="#242B33" stroke-width="1.1" stroke-linecap="round" stroke-linejoin="round"/>
<path d="M66.2715 44.3797C66.2715 44.3797 67.4433 43.7101 67.4991 42.7429C67.5549 41.7757 68.6337 38.3719 69.8799 38.3161C70.2891 38.3161 70.1961 38.9857 69.8799 39.8971C69.8799 39.8971 72.9117 36.5677 73.1535 37.3303C73.4296 38.2407 73.4435 39.2105 73.1934 40.1284C72.9434 41.0463 72.4396 41.8751 71.7399 42.5197C69.5451 44.9005 67.8711 46.3699 67.8711 46.3699" fill="white"/>
<path d="M66.2715 44.3797C66.2715 44.3797 67.4433 43.7101 67.4991 42.7429C67.5549 41.7757 68.6337 38.3719 69.8799 38.3161C70.2891 38.3161 70.1961 38.9857 69.8799 39.8971C69.8799 39.8971 72.9117 36.5677 73.1535 37.3303C73.4296 38.2407 73.4435 39.2105 73.1934 40.1284C72.9434 41.0463 72.4396 41.8751 71.7399 42.5197C69.5451 44.9005 67.8711 46.3699 67.8711 46.3699" stroke="#242B33" stroke-width="1.1" stroke-linecap="round" stroke-linejoin="round"/>
<path d="M67.8714 46.3698L58.5714 56.916C57.7098 57.8932 56.659 58.6854 55.4825 59.2449C54.306 59.8043 53.0283 60.1194 51.7266 60.171C50.2807 60.2316 48.8324 60.1881 47.3928 60.0408C47.3928 58.4784 47.3928 57.2694 47.2812 56.637C47.2735 56.594 47.2735 56.5499 47.2812 56.5068C47.2369 56.2303 47.1748 55.9569 47.0952 55.6884C46.9917 55.2906 46.8483 54.9043 46.6674 54.5352C46.5684 54.2907 46.4502 54.0543 46.314 53.8284C46.2526 53.7128 46.1843 53.601 46.1094 53.4936C48.6199 53.9315 51.1722 54.0812 53.7168 53.94C55.8186 53.3634 66.1044 44.082 66.1044 44.082L66.309 44.361L67.8714 46.3698Z" fill="white" stroke="#242B33" stroke-width="1.1" stroke-linecap="round" stroke-linejoin="round"/>
<path d="M41.9805 49.3461L39.6927 51.2061L35.9727 48.7323V47.1699C37.0814 47.7746 38.3185 48.1062 39.5811 48.1371C40.3243 48.2091 41.0742 48.1137 41.7759 47.8581L41.9805 49.3461Z" fill="white" stroke="#242B33" stroke-width="1.1" stroke-linecap="round" stroke-linejoin="round"/>
<path d="M22.4512 59.5391V90.6569C22.4512 92.1861 23.0587 93.6527 24.14 94.734C25.2213 95.8154 26.6879 96.4229 28.2172 96.4229H45.6268" stroke="#242B33" stroke-width="1.1" stroke-linecap="round" stroke-linejoin="round"/>
<path d="M21.2227 99.6963V99.6777" stroke="#242B33" stroke-width="1.1" stroke-linecap="round" stroke-linejoin="round"/>
<path d="M24.6828 100.813L19.4934 134.535H15.7734L21.3534 99.6973C22.3268 100.394 23.4865 100.782 24.6828 100.813Z" fill="white" stroke="#242B33" stroke-width="1.1" stroke-linecap="round" stroke-linejoin="round"/>
<path d="M44.528 104.569C43.9886 109.703 43.5794 115.729 43.3004 120.528L40.25 100.812H41.4218C42.2535 100.831 43.0732 100.612 43.784 100.18L44.528 104.569Z" fill="white" stroke="#242B33" stroke-width="1.1" stroke-linecap="round" stroke-linejoin="round"/>
<path d="M39.9902 53.6797V54.0331" stroke="#242B33" stroke-width="1.1" stroke-linecap="round" stroke-linejoin="round"/>
<path d="M40.1953 56.3203V56.6737" stroke="#242B33" stroke-width="1.1" stroke-linecap="round" stroke-linejoin="round"/>
<path d="M109.74 59.707H117.72V66.4216C117.72 67.0975 117.451 67.7456 116.973 68.2235C116.495 68.7014 115.847 68.9698 115.171 68.9698H112.344C112.006 68.9772 111.671 68.9174 111.356 68.7938C111.042 68.6703 110.755 68.4854 110.513 68.25C110.271 68.0146 110.077 67.7334 109.945 67.4227C109.812 67.112 109.743 66.778 109.74 66.4402V59.707Z" fill="white" stroke="#242B33" stroke-width="1.1" stroke-linecap="round" stroke-linejoin="round"/>
<path d="M117.775 60.9161H119.635C119.753 60.915 119.869 60.9392 119.977 60.9871C120.084 61.035 120.18 61.1055 120.258 61.1938C120.335 61.282 120.393 61.3859 120.427 61.4985C120.461 61.6111 120.47 61.7296 120.454 61.8461C120.465 62.6359 120.2 63.4048 119.704 64.0196C119.208 64.6345 118.513 65.0565 117.738 65.2127" fill="white"/>
<path d="M117.775 60.9161H119.635C119.753 60.915 119.869 60.9392 119.977 60.9871C120.084 61.035 120.18 61.1055 120.258 61.1938C120.335 61.282 120.393 61.3859 120.427 61.4985C120.461 61.6111 120.47 61.7296 120.454 61.8461C120.465 62.6359 120.2 63.4048 119.704 64.0196C119.208 64.6345 118.513 65.0565 117.738 65.2127" stroke="#242B33" stroke-width="1.1" stroke-linecap="round" stroke-linejoin="round"/>
<path d="M81.2261 68.9882H78.3431C77.6803 68.964 77.053 68.6824 76.5946 68.2031C76.1361 67.7238 75.8826 67.0846 75.8879 66.4214V59.7068H83.7929L83.7929 66.4214C83.7954 66.7592 83.7307 67.0941 83.6026 67.4066C83.4744 67.7191 83.2855 68.0031 83.0466 68.2419C82.8078 68.4808 82.5238 68.6698 82.2113 68.7979C81.8988 68.926 81.5639 68.9907 81.2261 68.9882Z" fill="white" stroke="#242B33" stroke-width="1.1" stroke-linecap="round" stroke-linejoin="round"/>
<path d="M75.7954 60.9161H73.9354C73.8179 60.915 73.7015 60.9392 73.5941 60.9871C73.4868 61.035 73.391 61.1055 73.3134 61.1938C73.2357 61.282 73.178 61.3859 73.1441 61.4985C73.1102 61.6111 73.101 61.7296 73.117 61.8461C73.1058 62.6359 73.3711 63.4048 73.867 64.0196C74.363 64.6345 75.0583 65.0565 75.8326 65.2127" fill="white"/>
<path d="M75.7954 60.9161H73.9354C73.8179 60.915 73.7015 60.9392 73.5941 60.9871C73.4868 61.035 73.391 61.1055 73.3134 61.1938C73.2357 61.282 73.178 61.3859 73.1441 61.4985C73.1102 61.6111 73.101 61.7296 73.117 61.8461C73.1058 62.6359 73.3711 63.4048 73.867 64.0196C74.363 64.6345 75.0583 65.0565 75.8326 65.2127" stroke="#242B33" stroke-width="1.1" stroke-linecap="round" stroke-linejoin="round"/>
<path d="M79.7196 14.1184C72.7074 10.8076 62.9796 11.9608 58.125 16.6852C57.2794 17.3829 56.5905 18.2512 56.1034 19.2332C55.6162 20.2153 55.3417 21.2891 55.2979 22.3845C55.254 23.4798 55.4417 24.5722 55.8487 25.59C56.2557 26.6079 56.8729 27.5285 57.66 28.2916L54.5352 34.8574L61.938 31.3606C68.9502 34.6714 78.678 33.5182 83.5326 28.7938C88.3872 24.0694 86.7504 17.4292 79.7196 14.1184Z" fill="white" stroke="#242B33" stroke-width="1.1" stroke-linecap="round" stroke-linejoin="round"/>
<path d="M77.7477 24.3337C78.866 24.3337 79.7727 23.427 79.7727 22.3085C79.7727 21.1899 78.866 20.2832 77.7477 20.2832C76.6293 20.2832 75.7227 21.1899 75.7227 22.3085C75.7227 23.427 76.6293 24.3337 77.7477 24.3337Z" fill="#5A5F65"/>
<path d="M70.7535 24.3337C71.8719 24.3337 72.7785 23.427 72.7785 22.3085C72.7785 21.1899 71.8719 20.2832 70.7535 20.2832C69.6351 20.2832 68.7285 21.1899 68.7285 22.3085C68.7285 23.427 69.6351 24.3337 70.7535 24.3337Z" fill="#5A5F65"/>
<path d="M63.7613 24.3337C64.8797 24.3337 65.7863 23.427 65.7863 22.3085C65.7863 21.1899 64.8797 20.2832 63.7613 20.2832C62.643 20.2832 61.7363 21.1899 61.7363 22.3085C61.7363 23.427 62.643 24.3337 63.7613 24.3337Z" fill="#5A5F65"/>
<path d="M110.001 26.282C117.032 22.9526 126.741 24.1058 131.614 28.8488C132.458 29.5479 133.146 30.4172 133.631 31.4C134.117 32.3828 134.389 33.4569 134.431 34.5522C134.474 35.6476 134.284 36.7395 133.876 37.7567C133.467 38.7739 132.848 39.6934 132.06 40.4552L135.185 47.0024L127.745 43.4312C120.733 46.742 111.005 45.5888 106.151 40.8458C101.296 36.1028 102.989 29.5928 110.001 26.282Z" fill="white" stroke="#242B33" stroke-width="1.1" stroke-linecap="round" stroke-linejoin="round"/>
<path d="M111.841 36.4978C112.96 36.4978 113.866 35.5911 113.866 34.4725C113.866 33.354 112.96 32.4473 111.841 32.4473C110.723 32.4473 109.816 33.354 109.816 34.4725C109.816 35.5911 110.723 36.4978 111.841 36.4978Z" fill="#5A5F65"/>
<path d="M118.836 36.4978C119.954 36.4978 120.861 35.5911 120.861 34.4725C120.861 33.354 119.954 32.4473 118.836 32.4473C117.717 32.4473 116.811 33.354 116.811 34.4725C116.811 35.5911 117.717 36.4978 118.836 36.4978Z" fill="#5A5F65"/>
<path d="M125.83 36.4978C126.948 36.4978 127.855 35.5911 127.855 34.4725C127.855 33.354 126.948 32.4473 125.83 32.4473C124.711 32.4473 123.805 33.354 123.805 34.4725C123.805 35.5911 124.711 36.4978 125.83 36.4978Z" fill="#5A5F65"/>
<path d="M118.779 132.544C118.647 133.024 118.419 133.474 118.11 133.864C117.961 134.049 117.774 134.199 117.562 134.305C117.351 134.41 117.119 134.47 116.882 134.478C115.636 134.478 112.976 134.59 110.967 134.478C108.27 134.292 107.452 133.678 106.633 132.228C105.815 130.777 110.186 130.963 110.186 130.963C110.186 133.251 114.65 133.009 115.915 132.823C116.303 132.723 116.659 132.525 116.949 132.248C117.238 131.971 117.452 131.625 117.57 131.242H118.017C118.27 131.343 118.483 131.526 118.621 131.762C118.76 131.998 118.815 132.273 118.779 132.544Z" fill="#A6A6A6" stroke="#242B33" stroke-width="1.1" stroke-linecap="round" stroke-linejoin="round"/>
<path d="M118.314 127.932L117.57 131.149C117.452 131.533 117.238 131.879 116.948 132.156C116.658 132.433 116.302 132.63 115.914 132.73C114.65 132.991 110.223 133.233 110.186 130.87C111.605 130.334 112.773 129.285 113.459 127.932H118.314Z" fill="white" stroke="#242B33" stroke-width="1.1" stroke-linecap="round" stroke-linejoin="round"/>
</svg>
